<?xml version="1.0" encoding="UTF-8"?>
<svg width="31px" height="40px" viewBox="0 0 31 40" version="1.1" xmlns="http://www.w3.org/2000/svg" xmlns:xlink="http://www.w3.org/1999/xlink">
    <!-- Generator: Sketch 56.2 (81672) - https://sketch.com -->
    <title>€</title>
    <desc>Created with Sketch.</desc>
    <g id="Page-1" stroke="none" stroke-width="1" fill="none" fill-rule="evenodd">
        <g id="Statistik" transform="translate(-988.000000, -233.000000)" fill="#EAF0F7" fill-rule="nonzero">
            <g id="card" transform="translate(768.000000, 218.000000)">
                <path d="M239.22,54.72 C235.459981,54.72 232.210014,53.5700115 229.47,51.27 C226.729986,48.9699885 224.900005,45.5800224 223.98,41.1 L220.26,41.1 L220.26,36.96 L223.5,36.72 C223.46,36.4399986 223.44,36.18 223.44,35.94 L223.44,34.35 C223.44,34.0899987 223.46,33.8400012 223.5,33.6 L220.26,33.6 L220.26,29.52 L223.98,29.22 C224.460002,26.9799888 225.179995,24.9900087 226.14,23.25 C227.100005,21.5099913 228.269993,20.040006 229.65,18.84 C231.030007,17.639994 232.579991,16.7300031 234.3,16.11 C236.020009,15.4899969 237.87999,15.18 239.88,15.18 C241.680009,15.18 243.439991,15.579996 245.16,16.38 C246.880009,17.18 248.379994,18.3399924 249.66,19.86 L244.74,24.6 C243.979996,23.8399962 243.190004,23.2200024 242.37,22.74 C241.549996,22.2599976 240.620005,22.02 239.58,22.02 C237.859991,22.02 236.430006,22.6399938 235.29,23.88 C234.149994,25.1200062 233.340002,26.8799886 232.86,29.16 L245.7,29.16 L245.7,33.6 L232.32,33.6 L232.32,35.76 C232.32,36.0400014 232.34,36.3199986 232.38,36.6 L243.3,36.6 L243.3,41.1 L232.98,41.1 C233.540003,43.300011 234.389994,44.9799942 235.53,46.14 C236.670006,47.3000058 238.079992,47.88 239.76,47.88 C240.920006,47.88 241.929996,47.6000028 242.79,47.04 C243.650004,46.4799972 244.479996,45.68 245.28,44.64 L250.14,49.2 C248.699993,51.000009 247.060009,52.3699953 245.22,53.31 C243.379991,54.2500047 241.380011,54.72 239.22,54.72 Z" id="€"></path>
            </g>
        </g>
    </g>
</svg>