<?xml version="1.0" encoding="UTF-8"?>
<svg width="52px" height="51px" viewBox="0 0 52 51" version="1.1" xmlns="http://www.w3.org/2000/svg" xmlns:xlink="http://www.w3.org/1999/xlink">
    <!-- Generator: Sketch 49.3 (51167) - http://www.bohemiancoding.com/sketch -->
    <desc>Created with Sketch.</desc>
    <defs></defs>
    <g id="Page-1" stroke="none" stroke-width="1" fill="none" fill-rule="evenodd">
        <g id="firework">
            <path d="M32.901,24.135 C32.87,24.036 34.34,23.479 36.038,22.929 C37.735,22.376 39.662,21.839 40.492,21.637 C42.152,21.23 42.566,21.319 42.612,21.522 C42.66,21.73 42.325,21.974 40.674,22.377 C39.848,22.575 37.915,23.036 36.185,23.449 C34.456,23.863 32.932,24.237 32.901,24.135" id="Fill-268" fill="#DE463F"></path>
            <path d="M41.084,26.682 C41.084,26.527 42.71,26.387 44.563,26.336 C46.415,26.281 48.49,26.325 49.375,26.381 C51.146,26.492 51.521,26.783 51.498,27.092 C51.474,27.407 51.062,27.62 49.307,27.511 C48.429,27.455 46.378,27.286 44.541,27.136 C42.705,26.982 41.083,26.84 41.084,26.682" id="Fill-269" fill="#DE463F"></path>
            <path d="M32.621,28.351 C32.652,28.252 34.198,28.635 35.932,29.156 C37.666,29.673 39.582,30.336 40.392,30.645 C42.011,31.263 42.305,31.573 42.228,31.767 C42.149,31.965 41.731,31.973 40.121,31.359 C39.318,31.047 37.439,30.319 35.757,29.667 C34.076,29.017 32.589,28.453 32.621,28.351" id="Fill-270" fill="#FFFFFE"></path>
            <path d="M31.658,30.337 C31.745,30.21 34.196,31.733 36.898,33.586 C39.605,35.433 42.552,37.622 43.784,38.593 C46.25,40.534 46.627,41.186 46.433,41.425 C46.233,41.671 45.54,41.416 43.086,39.484 C41.859,38.517 39.003,36.238 36.425,34.232 C33.853,32.219 31.567,30.467 31.658,30.337" id="Fill-271" fill="#6C5E99"></path>
            <path d="M31.056,32.997 C31.139,32.933 32.041,33.932 33.004,35.12 C33.969,36.304 34.988,37.681 35.402,38.284 C36.231,39.491 36.264,39.862 36.091,39.978 C35.914,40.096 35.597,39.916 34.774,38.718 C34.368,38.115 33.42,36.704 32.57,35.441 C31.722,34.177 30.972,33.063 31.056,32.997" id="Fill-272" fill="#DE463F"></path>
            <path d="M28.738,34.237 C28.883,34.182 29.951,36.61 31.035,39.421 C32.125,42.229 33.215,45.423 33.64,46.801 C34.492,49.558 34.417,50.253 34.121,50.34 C33.817,50.429 33.406,49.879 32.559,47.137 C32.14,45.765 31.158,42.556 30.279,39.684 C29.392,36.816 28.59,34.293 28.738,34.237" id="Fill-273" fill="#DE463F"></path>
            <path d="M26.241,36.698 C26.345,36.692 26.501,37.707 26.607,38.867 C26.715,40.027 26.768,41.331 26.767,41.888 C26.764,43.003 26.583,43.25 26.374,43.246 C26.162,43.243 26.001,42.992 26.003,41.887 C26.005,41.335 26.038,40.042 26.067,38.885 C26.1,37.728 26.135,36.705 26.241,36.698" id="Fill-274" fill="#FFFFFE"></path>
            <path d="M22.713,37.591 C22.864,37.628 22.489,39.725 21.942,42.082 C21.4,44.44 20.675,47.051 20.327,48.156 C19.631,50.366 19.217,50.775 18.924,50.679 C18.624,50.579 18.556,50.014 19.247,47.818 C19.6,46.724 20.428,44.163 21.17,41.869 C21.912,39.577 22.56,37.553 22.713,37.591" id="Fill-275" fill="#DE463F"></path>
            <path d="M22.968,30.661 C23.057,30.715 22.193,32.323 21.127,34.103 C20.066,35.885 18.797,37.831 18.23,38.647 C17.096,40.278 16.691,40.535 16.522,40.414 C16.348,40.29 16.475,39.836 17.602,38.212 C18.167,37.402 19.49,35.507 20.673,33.811 C21.851,32.112 22.877,30.606 22.968,30.661" id="Fill-276" fill="#6C5E99"></path>
            <path d="M14.912,35.232 C15.014,35.348 13.796,36.612 12.335,37.966 C10.877,39.324 9.171,40.763 8.418,41.348 C6.913,42.52 6.414,42.568 6.227,42.321 C6.037,42.069 6.228,41.619 7.721,40.456 C8.468,39.875 10.239,38.547 11.821,37.353 C13.406,36.163 14.807,35.114 14.912,35.232" id="Fill-277" fill="#6C5E99"></path>
            <path d="M19.795,28.555 C19.837,28.651 18.377,29.409 16.679,30.189 C14.982,30.973 13.046,31.77 12.208,32.084 C10.533,32.714 10.095,32.68 10.024,32.484 C9.952,32.283 10.273,31.996 11.938,31.37 C12.773,31.061 14.724,30.338 16.471,29.691 C18.216,29.041 19.751,28.458 19.795,28.555" id="Fill-278" fill="#DE463F"></path>
            <path d="M11.814,27.322 C11.833,27.476 10.095,27.826 8.103,28.111 C6.112,28.402 3.869,28.617 2.908,28.672 C0.984,28.782 0.542,28.538 0.529,28.228 C0.515,27.913 0.933,27.651 2.841,27.542 C3.795,27.488 6.03,27.4 8.03,27.315 C10.029,27.234 11.796,27.166 11.814,27.322" id="Fill-279" fill="#DE463F"></path>
            <path d="M19.656,24.632 C19.637,24.734 17.973,24.523 16.097,24.192 C14.22,23.866 12.135,23.411 11.25,23.19 C9.48,22.747 9.131,22.468 9.185,22.267 C9.239,22.061 9.674,22.009 11.434,22.449 C12.313,22.672 14.369,23.196 16.209,23.664 C18.049,24.128 19.675,24.527 19.656,24.632" id="Fill-280" fill="#FFFFFE"></path>
            <path d="M14.175,19.366 C14.103,19.503 12.39,18.759 10.496,17.809 C8.599,16.865 6.527,15.706 5.662,15.177 C3.929,14.121 3.684,13.656 3.849,13.394 C4.017,13.127 4.529,13.161 6.248,14.209 C7.108,14.734 9.1,15.993 10.888,17.112 C12.673,18.235 14.249,19.226 14.175,19.366" id="Fill-281" fill="#FFFFFE"></path>
            <path d="M22.113,21.867 C22.039,21.94 20.702,20.732 19.25,19.291 C17.794,17.853 16.23,16.177 15.584,15.441 C14.29,13.969 14.142,13.518 14.3,13.383 C14.462,13.244 14.868,13.471 16.156,14.935 C16.798,15.669 18.299,17.385 19.642,18.921 C20.99,20.451 22.189,21.792 22.113,21.867" id="Fill-282" fill="#6C5E99"></path>
            <path d="M20.209,14.057 C20.071,14.128 19.069,12.513 18.033,10.62 C16.992,8.729 15.927,6.558 15.508,5.614 C14.667,3.726 14.727,3.197 15.011,3.075 C15.301,2.951 15.706,3.278 16.54,5.152 C16.947,6.093 17.899,8.294 18.752,10.269 C19.599,12.242 20.348,13.984 20.209,14.057" id="Fill-283" fill="#DE463F"></path>
            <path d="M25.03,19.439 C24.927,19.458 24.541,17.853 24.19,16.011 C23.835,14.171 23.526,12.094 23.422,11.202 C23.213,9.419 23.35,9.001 23.557,8.98 C23.77,8.958 23.972,9.339 24.18,11.112 C24.28,11.998 24.514,14.073 24.724,15.93 C24.937,17.785 25.135,19.42 25.03,19.439" id="Fill-284" fill="#DE463F"></path>
            <path d="M28.356,11.33 C28.202,11.311 28.264,9.661 28.445,7.795 C28.62,5.93 28.922,3.853 29.089,2.972 C29.419,1.208 29.756,0.866 30.059,0.928 C30.368,0.99 30.529,1.43 30.201,3.178 C30.037,4.052 29.612,6.09 29.236,7.915 C28.854,9.739 28.512,11.349 28.356,11.33" id="Fill-285" fill="#FFFFFE"></path>
            <path d="M29.939,18.077 C29.844,18.034 30.295,16.809 30.881,15.447 C31.464,14.085 32.188,12.591 32.521,11.964 C33.186,10.71 33.494,10.517 33.677,10.618 C33.864,10.72 33.856,11.076 33.196,12.321 C32.859,12.939 32.072,14.386 31.367,15.683 C30.659,16.978 30.036,18.121 29.939,18.077" id="Fill-286" fill="#6C5E99"></path>
            <path d="M30.809,21.053 C30.694,20.95 32.511,18.699 34.689,16.239 C36.86,13.772 39.401,11.109 40.519,10.002 C42.755,7.786 43.449,7.491 43.662,7.713 C43.882,7.941 43.542,8.599 41.318,10.804 C40.205,11.906 37.585,14.468 35.272,16.787 C32.952,19.1 30.928,21.158 30.809,21.053" id="Fill-287" fill="#DE463F"></path>
            <path d="M33.898,21.653 C33.844,21.564 34.89,20.825 36.122,20.051 C37.351,19.275 38.768,18.472 39.386,18.152 C40.622,17.511 40.98,17.53 41.073,17.716 C41.169,17.907 40.965,18.192 39.739,18.829 C39.123,19.14 37.68,19.868 36.387,20.522 C35.094,21.171 33.953,21.744 33.898,21.653" id="Fill-288" fill="#6C5E99"></path>
            <path d="M30.263,25.734 C30.263,25.92 30.112,26.071 29.926,26.071 C29.741,26.071 29.59,25.92 29.59,25.734 C29.59,25.548 29.741,25.397 29.926,25.397 C30.112,25.397 30.263,25.548 30.263,25.734" id="Fill-289" fill="#FFFFFE"></path>
            <path d="M29.765,20.085 C29.765,20.273 29.612,20.426 29.423,20.426 C29.234,20.426 29.081,20.273 29.081,20.085 C29.081,19.896 29.234,19.743 29.423,19.743 C29.612,19.743 29.765,19.896 29.765,20.085" id="Fill-290" fill="#FFFFFE"></path>
            <path d="M27.194,23.741 C27.194,23.901 27.064,24.03 26.905,24.03 C26.746,24.03 26.616,23.901 26.616,23.741 C26.616,23.582 26.746,23.453 26.905,23.453 C27.064,23.453 27.194,23.582 27.194,23.741" id="Fill-291" fill="#FFFFFE"></path>
            <path d="M21.562,22.909 C21.562,23.172 21.349,23.385 21.086,23.385 C20.824,23.385 20.611,23.172 20.611,22.909 C20.611,22.647 20.824,22.434 21.086,22.434 C21.349,22.434 21.562,22.647 21.562,22.909" id="Fill-292" fill="#6C5E99"></path>
            <path d="M24.206,23.211 C24.206,23.477 23.991,23.692 23.726,23.692 C23.46,23.692 23.245,23.477 23.245,23.211 C23.245,22.946 23.46,22.731 23.726,22.731 C23.991,22.731 24.206,22.946 24.206,23.211" id="Fill-293" fill="#DE463F"></path>
            <path d="M21.939,26.025 C21.939,26.186 21.809,26.316 21.648,26.316 C21.487,26.316 21.357,26.186 21.357,26.025 C21.357,25.864 21.487,25.734 21.648,25.734 C21.809,25.734 21.939,25.864 21.939,26.025" id="Fill-294" fill="#DE463F"></path>
            <path d="M25.256,26.436 C25.256,26.633 25.096,26.793 24.898,26.793 C24.701,26.793 24.541,26.633 24.541,26.436 C24.541,26.238 24.701,26.079 24.898,26.079 C25.096,26.079 25.256,26.238 25.256,26.436" id="Fill-295" fill="#DE463F"></path>
            <path d="M23.409,29.495 C23.409,29.738 23.212,29.934 22.97,29.934 C22.728,29.934 22.531,29.738 22.531,29.495 C22.531,29.253 22.728,29.057 22.97,29.057 C23.212,29.057 23.409,29.253 23.409,29.495" id="Fill-296" fill="#DE463F"></path>
            <path d="M26.177,30.967 C26.177,31.168 26.014,31.331 25.813,31.331 C25.612,31.331 25.449,31.168 25.449,30.967 C25.449,30.766 25.612,30.603 25.813,30.603 C26.014,30.603 26.177,30.766 26.177,30.967" id="Fill-297" fill="#FFFFFE"></path>
            <path d="M28.055,28.857 C28.055,28.976 27.959,29.073 27.839,29.073 C27.72,29.073 27.623,28.976 27.623,28.857 C27.623,28.738 27.72,28.641 27.839,28.641 C27.959,28.641 28.055,28.738 28.055,28.857" id="Fill-298" fill="#6C5E99"></path>
            <path d="M27.507,26.186 C27.507,26.352 27.372,26.487 27.206,26.487 C27.04,26.487 26.905,26.352 26.905,26.186 C26.905,26.019 27.04,25.885 27.206,25.885 C27.372,25.885 27.507,26.019 27.507,26.186" id="Fill-299" fill="#FFFFFE"></path>
            <path d="M31.015,23.961 C31.015,24.11 30.895,24.231 30.746,24.231 C30.597,24.231 30.477,24.11 30.477,23.961 C30.477,23.812 30.597,23.692 30.746,23.692 C30.895,23.692 31.015,23.812 31.015,23.961" id="Fill-300" fill="#FFFFFE"></path>
            <path d="M20.061,26.809 C20.061,26.987 19.917,27.131 19.739,27.131 C19.561,27.131 19.417,26.987 19.417,26.809 C19.417,26.631 19.561,26.487 19.739,26.487 C19.917,26.487 20.061,26.631 20.061,26.809" id="Fill-301" fill="#6C5E99"></path>
            <path d="M33.515,26.534 C33.515,26.726 33.359,26.882 33.167,26.882 C32.975,26.882 32.818,26.726 32.818,26.534 C32.818,26.342 32.975,26.186 33.167,26.186 C33.359,26.186 33.515,26.342 33.515,26.534" id="Fill-302" fill="#6C5E99"></path>
            <path d="M26.979,18.809 C26.979,19.008 26.817,19.17 26.618,19.17 C26.419,19.17 26.258,19.008 26.258,18.809 C26.258,18.61 26.419,18.449 26.618,18.449 C26.817,18.449 26.979,18.61 26.979,18.809" id="Fill-303" fill="#6C5E99"></path>
        </g>
    </g>
</svg>