<svg xmlns="http://www.w3.org/2000/svg" width="209" height="24" viewBox="0 0 209 24">
    <g fill="#203257">
        <path d="M168.954 2.807c0 1.484-1.257 2.647-2.764 2.647-1.55 0-2.764-1.203-2.764-2.647 0-1.484 1.256-2.648 2.764-2.648 1.507-.04 2.764 1.164 2.764 2.648zM3.61 8.824c.042-.401.545-.522.545-.522h5.821c2.932-.04 2.973 1.525 2.973 1.525.461 2.527-2.638 2.326-2.638 2.326-.126.04-6.659 0-6.659 0v-3.33H3.61zm1.173 8.223C3.4 16.807 3.61 14.28 3.61 14.28h7.455c5.905 0 5.528-4.172 5.528-4.172.042-3.37-4.272-3.77-4.272-3.77-.377-.08-2.01-.12-2.01-.12H1.977C.385 6.376.092 7.9.092 7.9v7.822c.042 3.65 4.858 3.69 4.858 3.69l10.973.04v-2.085H7.338c-1.424 0-2.555-.32-2.555-.32zm27.39.28h-5.068c-3.267.081-3.309-1.523-3.309-1.523-.335-2.487 2.765-2.367 2.765-2.367h6.617l.042 2.848c-.042 1.083-1.047 1.043-1.047 1.043zm4.523-6.337s.042-1.966-.587-2.968c0 0-.712-1.806-5.025-1.846h-9.675v2.086h7.874s2.848-.04 3.35.682c0 0 .545.522.503 2.367 0 0-7.413 0-7.622.04 0 0-4.607-.2-5.235 3.049 0 0-1.34 4.252 4.355 4.893 0 0 1.215.08 1.968.08h7.748s2.262.121 2.388-2.125l-.042-6.258zm19.307-2.728V6.216h-9.717s-5.737-.48-5.78 3.891c0 4.573 5.697 3.972 5.697 3.972l5.025.04s1.885-.2 1.885 1.524c0 1.725-1.675 1.645-1.675 1.645l-10.722.08v2.046h11.727s4.565.32 4.313-4.413c0 0 .126-3.169-3.853-3.169l-6.45-.08s-2.554.16-2.26-1.885c0 0 .041-1.605 2.303-1.525l9.507-.08zm4.313-1.965h3.518v8.343s-.167 2.808 3.057 2.768h5.194V6.297h3.56V18.17s0 2.848-.503 3.61c0 0-.838 1.926-5.026 1.926H60.4V21.66l9.465-.04s2.429.2 2.261-2.086h-5.528s-5.277.28-5.989-3.25c0 0-.25-1.403-.209-2.526l-.084-7.461zM92.732 12.915c-.252 5.255-4.23 4.373-4.691 4.493h-4.23s-.544-.12-.544-.602V8.182h4.9s4.816-.441 4.565 4.733zm-3.309-6.94h-6.156V3.81h-3.602v14.2c.335 1.564 1.717 1.484 1.717 1.484h8.041c1.215.04 7.078-.2 7.078-6.98 0-6.739-7.078-6.538-7.078-6.538zm19.6 11.594c-1.8-.04-5.905-.201-5.738-4.934.168-4.734 5.738-4.413 5.738-4.413s5.193-.12 5.319 4.413c.126 4.532-3.518 4.974-5.319 4.934zm9.088-4.934c-.042-6.98-9.088-6.66-9.088-6.66s-9.046-.36-9.507 6.66c-.46 7.621 9.465 7.18 9.465 7.18s9.172.401 9.13-7.18zm12.313 4.893c-1.8-.04-5.905-.2-5.738-4.934.168-4.733 5.738-4.412 5.738-4.412s5.193-.12 5.319 4.412c.125 4.573-3.518 5.015-5.319 4.934zm0-11.552s-9.046-.361-9.507 6.659c-.46 7.621 9.465 7.18 9.465 7.18s9.13.36 9.088-7.22c-.042-6.98-9.046-6.62-9.046-6.62zm12.941-2.206h3.644v7.5l8.543-5.254h4.607l-11.224 6.78 11.224 6.738h-4.607l-8.543-5.295v5.295h-3.644V3.77zm21.024 2.246v13.518h3.56V6.096s-1.675 1.003-3.56-.08zm7.915 13.518h3.602V8.584s.21-.402.503-.362h4.397s3.309-.32 3.644 2.728v8.624h3.643V10.95s.377-5.095-6.742-4.934h-7.246s-1.843.08-1.759 2.326l-.042 11.192zm32.96-6.9v4.854l-5.151.04s-4.774.402-4.523-4.893c.21-4.533 4.481-4.293 4.481-4.293h.084l4.146-.08s.921-.08.921.843l.042 3.53zm3.602 7.06V7.5c-.168-1.243-1.592-1.404-1.592-1.404h-5.905c-2.387.04-3.601.24-3.601.24s-5.487.402-5.906 6.258c-.544 7.381 7.748 6.98 7.748 6.98l5.654.04c0 .281-.042 1.204-.042 1.204-.083 1.043-2.47 1.003-2.47 1.003h-8.88v2.085l8.838.04c6.198.04 6.114-2.807 6.114-2.807.042-.08.042-1.444.042-1.444z"/>
    </g>
</svg>
