<svg xmlns="http://www.w3.org/2000/svg" width="1040" height="119" viewBox="0 0 1040 119">
    <g fill="#203257" fill-rule="nonzero" opacity=".041">
        <path d="M840.728 13.917c0 7.36-6.252 13.127-13.755 13.127-7.71 0-13.754-5.967-13.754-13.127 0-7.359 6.252-13.127 13.754-13.127 7.503-.199 13.755 5.768 13.755 13.127zM17.964 43.752c.209-1.99 2.71-2.586 2.71-2.586H49.64c14.588-.199 14.797 7.558 14.797 7.558 2.292 12.53-13.13 11.536-13.13 11.536-.625.199-33.135 0-33.135 0V43.752h-.209zM23.8 84.525c-6.878-1.193-5.836-13.724-5.836-13.724H55.06c29.384 0 27.508-20.685 27.508-20.685.209-16.707-21.256-18.696-21.256-18.696-1.876-.398-10.004-.597-10.004-.597H9.837c-7.92.796-9.378 8.354-9.378 8.354v38.785C.667 96.06 24.633 96.26 24.633 96.26l54.601.199V86.116H36.512c-7.086 0-12.712-1.59-12.712-1.59zm136.293 1.392h-25.216c-16.255.398-16.464-7.558-16.464-7.558-1.667-12.331 13.755-11.735 13.755-11.735h32.927l.208 14.122c-.208 5.37-5.21 5.171-5.21 5.171zM182.6 54.492s.209-9.746-2.917-14.718c0 0-3.543-8.95-25.008-9.15h-48.14v10.343h39.179s14.17-.199 16.672 3.381c0 0 2.709 2.586 2.5 11.735 0 0-36.886 0-37.928.199 0 0-22.924-.995-26.05 15.116 0 0-6.67 21.083 21.673 24.265 0 0 6.044.398 9.795.398h38.554s11.254.597 11.879-10.541l-.209-31.028zm96.073-13.525V30.823h-48.349s-28.55-2.386-28.76 19.293c0 22.674 28.343 19.69 28.343 19.69l25.008.2s9.378-.995 9.378 7.558c0 8.552-8.336 8.154-8.336 8.154l-53.35.398V96.26h58.352s22.715 1.591 21.465-21.879c0 0 .625-15.712-19.173-15.712l-32.093-.398s-12.713.795-11.254-9.348c0 0 .208-7.956 11.462-7.558l47.307-.398zm21.465-9.746h17.506v41.37s-.834 13.923 15.213 13.724h25.841V31.221h17.714v58.873s0 14.122-2.5 17.9c0 0-4.168 9.548-25.008 9.548h-48.35v-10.144l47.1-.199s12.086.995 11.253-10.342h-27.509s-26.258 1.392-29.801-16.11c0 0-1.25-6.962-1.042-12.531l-.417-36.995zM461.44 64.039c-1.25 26.055-21.049 21.68-23.341 22.276H417.05s-2.709-.597-2.709-2.983V40.569h24.383s23.966-2.188 22.716 23.47zm-16.464-34.41h-30.635V18.89H396.42V89.3c1.667 7.756 8.544 7.359 8.544 7.359h40.013c6.044.199 35.22-.995 35.22-34.608 0-33.415-35.22-32.42-35.22-32.42zm97.531 57.482c-8.961-.2-29.384-.995-28.55-24.464.833-23.47 28.55-21.879 28.55-21.879s25.842-.597 26.467 21.879c.625 22.475-17.506 24.663-26.467 24.464zm45.224-24.464c-.21-34.608-45.224-33.017-45.224-33.017s-45.014-1.79-47.307 33.017c-2.292 37.79 47.099 35.602 47.099 35.602s45.64 1.989 45.432-35.602zM649 86.912c-8.962-.2-29.385-.995-28.551-24.464.833-23.47 28.55-21.879 28.55-21.879s25.842-.596 26.467 21.879c.626 22.674-17.505 24.862-26.466 24.464zm0-57.282s-45.015-1.79-47.307 33.017c-2.293 37.79 47.098 35.602 47.098 35.602s45.431 1.79 45.224-35.801C693.805 27.84 649 29.63 649 29.63zm64.395-10.94h18.131v37.194L774.04 29.83h22.924l-55.852 33.613 55.852 33.415H774.04l-42.514-26.255v26.255h-18.13V18.69zM818.012 29.83v67.028h17.714v-66.63s-8.336 4.972-17.714-.398zM857.4 96.857h17.922V42.558s1.042-1.989 2.5-1.79h21.883s16.463-1.591 18.13 13.525v42.762h18.131V54.293s1.876-25.26-33.552-24.464h-36.053s-9.17.398-8.753 11.536l-.208 55.492zm164.01-34.21v24.066l-25.633.199S972.02 88.9 973.27 62.647c1.042-22.476 22.299-21.282 22.299-21.282h.417l20.631-.398s4.585-.398 4.585 4.177l.208 17.503zm17.923 35.005V37.188c-.834-6.166-7.92-6.961-7.92-6.961h-29.384c-11.879.198-17.922 1.193-17.922 1.193s-27.3 1.989-29.385 31.028c-2.709 36.596 38.554 34.607 38.554 34.607l28.134.2c0 1.392-.208 5.966-.208 5.966-.417 5.171-12.296 4.973-12.296 4.973h-44.18v10.342l43.972.2c30.843.198 30.426-13.924 30.426-13.924.209-.397.209-7.16.209-7.16z"/>
    </g>
</svg>
