<?xml version="1.0" encoding="UTF-8"?>
<svg width="50px" height="43px" viewBox="0 0 50 43" version="1.1" xmlns="http://www.w3.org/2000/svg" xmlns:xlink="http://www.w3.org/1999/xlink">
    <!-- Generator: Sketch 56.2 (81672) - https://sketch.com -->
    <title>002-move-arrows</title>
    <desc>Created with Sketch.</desc>
    <g id="Page-1" stroke="none" stroke-width="1" fill="none" fill-rule="evenodd">
        <g id="Statistik" transform="translate(-678.000000, -454.000000)" fill="#EAF0F7">
            <g id="card-3" transform="translate(440.000000, 443.000000)">
                <g id="002-move-arrows" transform="translate(238.000000, 11.000000)">
                    <polygon id="Path" points="13.5796706 12.8043256 27 12.8043256 27 5.19554473 13.5796706 5.19554473 13.5796706 0 0 9 13.5796706 18"></polygon>
                    <path d="M39.5,18 C44.1868929,18 48,14.1868929 48,9.5 C48,4.81310713 44.1868929,1 39.5,1 C34.8131071,1 31,4.81310713 31,9.5 C31,14.1868929 34.8131071,18 39.5,18 Z" id="Path"></path>
                    <polygon id="Path" points="50 34 36.4203294 25 36.4203294 30.1956744 23 30.1956744 23 37.8044553 36.4203294 37.8044553 36.4203294 43"></polygon>
                    <path d="M10.5,25 C5.81310713,25 2,28.8131071 2,33.5 C2,38.1868929 5.81310713,42 10.5,42 C15.1868929,42 19,38.1868929 19,33.5 C19,28.8131071 15.1868929,25 10.5,25 Z" id="Path"></path>
                </g>
            </g>
        </g>
    </g>
</svg>