<?xml version="1.0" encoding="UTF-8"?>
<svg width="152px" height="163px" viewBox="0 0 152 163" version="1.1" xmlns="http://www.w3.org/2000/svg" xmlns:xlink="http://www.w3.org/1999/xlink">
    <!-- Generator: Sketch 62 (91390) - https://sketch.com -->
    <title>Group</title>
    <desc>Created with Sketch.</desc>
    <g id="Page-1" stroke="none" stroke-width="1" fill="none" fill-rule="evenodd">
        <g id="Group" transform="translate(0.000000, 0.000000)">
            <polyline id="Fill-121" fill="#FFB946" points="75.559 162.733 32.596 151.372 32.596 86.591 75.559 97.952 75.559 162.733"></polyline>
            <polyline id="Fill-122" fill="#EDA74D" points="75.559 162.733 118.523 151.372 118.523 86.591 75.559 97.952 75.559 162.733"></polyline>
            <polyline id="Fill-123" fill="#9A6411" points="118.523 86.591 75.559 97.952 32.596 86.591 75.973 78.329 118.523 86.591"></polyline>
            <path d="M75.973,78.329 C75.973,78.329 94.562,70.066 96.216,70.066 C97.868,70.066 137.94,78.329 137.94,78.329 L118.523,86.591 L75.973,78.329" id="Fill-124" fill="#EDA74D"></path>
            <polyline id="Fill-125" fill="#FFB946" points="117.284 86.591 141.245 98.571 98.694 109.725 75.559 97.952 117.284 86.591"></polyline>
            <path d="M32.596,86.591 L8.222,94.44 C8.222,94.44 51.599,109.725 52.838,109.725 C54.078,109.725 75.559,97.952 75.559,97.952 L32.596,86.591" id="Fill-126" fill="#EDA74D"></path>
            <polyline id="Fill-127" fill="#EDA74D" points="75.973 78.329 53.664 71.719 14.419 80.807 35.9 86.178 75.973 78.329"></polyline>
            <path d="M77.453,92.615 C80.151,79.888 82.872,67.012 87.444,54.8 C89.474,49.38 91.974,44.111 95.012,39.18 C98.137,34.108 102.238,29.785 105.385,24.763 C106.236,23.402 104.552,21.776 103.204,22.582 C93.701,28.261 88.034,40.595 84.104,50.502 C78.848,63.754 76.645,77.782 74.47,91.793 C74.2713333,93.0743333 75.2656667,93.3483333 77.453,92.615 Z" id="Fill-128" fill="#38B4B8"></path>
            <path d="M71.933,90.225 C68.814,79.303 61.363,70.446 53.596,62.426 C49.284,57.974 44.669,53.797 39.897,49.845 C35.788,46.441 31.128,41.86 25.917,40.421 C24.717,40.09 23.337,41.564 24.17,42.693 C27.133,46.713 32.085,49.432 35.958,52.538 C40.339,56.051 44.548,59.773 48.591,63.67 C56.815,71.598 65.295,79.941 68.949,91.047 C69.567,92.925 72.483,92.154 71.933,90.225" id="Fill-129" fill="#38B4B8"></path>
            <path d="M55.828,82.857 C48.219,77.928 40.087,73.91 31.504,70.978 C23.908,68.383 14.437,65.196 6.334,66.306 C4.822,66.513 5.189,68.604 6.334,69.018 C10.07,70.368 14.156,70.593 18.034,71.447 C22.225,72.37 26.354,73.552 30.401,74.979 C38.625,77.877 46.34,81.856 53.604,86.661 C55.972,88.228 58.206,84.397 55.828,82.857" id="Fill-130" fill="#38B4B8"></path>
            <path d="M90.473,84.487 C101.013,73.341 113.322,65.526 126.209,57.461 C127.628,56.572 126.73,54.002 125.017,54.633 C110.587,59.955 98.069,70.633 88.019,82.035 C86.555,83.697 88.926,86.123 90.473,84.487" id="Fill-131" fill="#38B4B8"></path>
            <path d="M76.134,11.4 C66.667,10.332 65.801,9.466 64.733,-2.84217094e-14 C63.666,9.466 62.8,10.332 53.333,11.4 C62.8,12.467 63.666,13.333 64.733,22.8 C65.801,13.333 66.667,12.467 76.134,11.4" id="Fill-132" fill="#71D9EA"></path>
            <path d="M151.467,35.4 C142,34.332 141.135,33.466 140.066,24 C138.999,33.466 138.134,34.332 128.667,35.4 C138.134,36.467 138.999,37.333 140.066,46.8 C141.135,37.333 142,36.467 151.467,35.4" id="Fill-133" fill="#71D9EA"></path>
            <path d="M22.8,50.733 C13.333,49.665 12.468,48.8 11.4,39.333 C10.332,48.8 9.467,49.665 1.77635684e-15,50.733 C9.467,51.801 10.332,52.666 11.4,62.133 C12.468,52.666 13.333,51.801 22.8,50.733" id="Fill-134" fill="#71D9EA"></path>
            <path d="M56.714,29.4 C50.087,28.652 49.48,28.046 48.733,21.42 C47.986,28.046 47.38,28.652 40.753,29.4 C47.38,30.147 47.986,30.753 48.733,37.379 C49.48,30.753 50.087,30.147 56.714,29.4" id="Fill-135" fill="#71D9EA"></path>
            <path d="M144.047,64.733 C137.42,63.985 136.814,63.379 136.066,56.753 C135.319,63.379 134.714,63.985 128.087,64.733 C134.714,65.481 135.319,66.087 136.066,72.713 C136.814,66.087 137.42,65.481 144.047,64.733" id="Fill-136" fill="#71D9EA"></path>
            <path d="M112.714,49.4 C106.087,48.652 105.48,48.046 104.733,41.42 C103.986,48.046 103.38,48.652 96.753,49.4 C103.38,50.147 103.986,50.753 104.733,57.379 C105.48,50.753 106.087,50.147 112.714,49.4" id="Fill-137" fill="#71D9EA"></path>
        </g>
    </g>
</svg>