<svg width="55" height="54" viewBox="0 0 55 54" fill="none" xmlns="http://www.w3.org/2000/svg">
<path fill-rule="evenodd" clip-rule="evenodd" d="M0.5 27C0.5 12.0883 12.5883 0 27.5 0C34.6608 0 41.5284 2.84463 46.5919 7.90812C51.6554 12.9716 54.5 19.8392 54.5 27C54.5 41.9117 42.4117 54 27.5 54C12.5883 54 0.5 41.9117 0.5 27Z" fill="#FF9856"/>
<path d="M21.0791 22.9078L19.168 19.6003C18.9886 19.2986 18.5985 19.1994 18.2968 19.3788C17.9951 19.5582 17.8959 19.9483 18.0753 20.25L19.4844 22.6969H16.7C16.3505 22.6969 16.0672 22.9802 16.0672 23.3297C16.0672 23.6792 16.3505 23.9625 16.7 23.9625H20.4969C20.6719 23.9742 20.8439 23.9127 20.9719 23.7927C21.0998 23.6728 21.1723 23.5051 21.1719 23.3297C21.1719 23.3297 21.1719 23.3002 21.1719 23.2833C21.1812 23.1515 21.1487 23.0201 21.0791 22.9078Z" fill="#BB4A36"/>
<path d="M38.7261 22.6969H35.9375L37.3677 20.25C37.5424 19.9471 37.4385 19.5599 37.1356 19.3852C36.8327 19.2104 36.4455 19.3143 36.2708 19.6172L34.3639 22.9078C34.2961 23.0221 34.2679 23.1556 34.2837 23.2875C34.2817 23.3015 34.2817 23.3157 34.2837 23.3297C34.2837 23.6792 34.5671 23.9625 34.9166 23.9625H38.7134C39.0629 23.9625 39.3462 23.6792 39.3462 23.3297C39.3462 22.9802 39.0629 22.6969 38.7134 22.6969H38.7261Z" fill="#BB4A36"/>
<path d="M36.8909 39.998C36.7629 39.9993 36.6377 39.961 36.5323 39.8883C33.5614 37.8248 29.9791 36.8284 26.3694 37.0617C23.5308 37.2745 20.8023 38.2496 18.4719 39.8841C18.2865 40.0137 18.046 40.0345 17.8411 39.9388C17.6361 39.8431 17.4978 39.6453 17.4783 39.4199C17.4587 39.1945 17.5609 38.9759 17.7462 38.8462C20.2651 37.0813 23.2136 36.029 26.2808 35.8003C30.176 35.5489 34.0417 36.6224 37.2495 38.8462C37.4756 39.004 37.5735 39.29 37.4915 39.5533C37.4096 39.8165 37.1666 39.9964 36.8909 39.998Z" fill="#BB4A36"/>
</svg>
