<svg width="55" height="54" viewBox="0 0 55 54" fill="none" xmlns="http://www.w3.org/2000/svg">
<path fill-rule="evenodd" clip-rule="evenodd" d="M0.5 27C0.5 12.0883 12.5883 0 27.5 0C34.6608 0 41.5284 2.84463 46.5919 7.90812C51.6554 12.9716 54.5 19.8392 54.5 27C54.5 41.9117 42.4117 54 27.5 54C12.5883 54 0.5 41.9117 0.5 27Z" fill="#AEDC86"/>
<path d="M36.5998 25.8736C36.2503 25.8736 35.967 25.5903 35.967 25.2408V21.4439C35.967 21.0944 36.2503 20.8111 36.5998 20.8111C36.9493 20.8111 37.2327 21.0944 37.2327 21.4439V25.2408C37.2304 25.5893 36.9484 25.8713 36.5998 25.8736Z" fill="#568A54"/>
<path d="M18.4002 25.8736C18.0516 25.8713 17.7696 25.5893 17.7673 25.2408V21.4439C17.7673 21.0944 18.0507 20.8111 18.4002 20.8111C18.7496 20.8111 19.033 21.0944 19.033 21.4439V25.2408C19.033 25.5903 18.7496 25.8736 18.4002 25.8736Z" fill="#568A54"/>
<path d="M27.5 39.998C27.1077 39.998 26.7111 39.998 26.3019 39.9558C23.2343 39.7292 20.2852 38.6767 17.7673 36.9098C17.5708 36.7878 17.4566 36.5682 17.4694 36.3372C17.4822 36.1062 17.6201 35.9006 17.829 35.801C18.0378 35.7015 18.2844 35.7239 18.4719 35.8594C20.8015 37.4956 23.5304 38.4708 26.3694 38.6817C29.9786 38.9165 33.561 37.9217 36.5323 35.8594C36.7168 35.7086 36.9704 35.6741 37.1884 35.7704C37.4064 35.8666 37.5518 36.0771 37.5648 36.315C37.5777 36.5529 37.4558 36.7779 37.2495 36.8972C34.3856 38.8881 30.9878 39.9687 27.5 39.998Z" fill="#568A54"/>
</svg>
