<svg width="54" height="54" viewBox="0 0 54 54" fill="none" xmlns="http://www.w3.org/2000/svg">
<path fill-rule="evenodd" clip-rule="evenodd" d="M0 27C0 12.0883 12.0883 0 27 0C34.1608 0 41.0284 2.84463 46.0919 7.90812C51.1554 12.9716 54 19.8392 54 27C54 41.9117 41.9117 54 27 54C12.0883 54 0 41.9117 0 27Z" fill="#FFD815"/>
<path d="M38.0067 23.9625H34.1719C33.8224 23.9625 33.5391 23.6792 33.5391 23.3297C33.5391 22.9802 33.8224 22.6969 34.1719 22.6969H37.9688C38.3182 22.6969 38.6016 22.9802 38.6016 23.3297C38.6016 23.6792 38.3182 23.9625 37.9688 23.9625H38.0067Z" fill="#C86B7A"/>
<path d="M19.8281 23.9625H15.9933C15.6438 23.9625 15.3605 23.6792 15.3605 23.3297C15.3605 22.9802 15.6438 22.6969 15.9933 22.6969H19.8281C20.1776 22.6969 20.4609 22.9802 20.4609 23.3297C20.4609 23.6792 20.1776 23.9625 19.8281 23.9625Z" fill="#C96878"/>
<path d="M36.391 37.0237H17.6091C17.2596 37.0237 16.9763 36.7404 16.9763 36.3909C16.9763 36.0414 17.2596 35.7581 17.6091 35.7581H36.391C36.7405 35.7581 37.0238 36.0414 37.0238 36.3909C37.0238 36.7404 36.7405 37.0237 36.391 37.0237Z" fill="#C96878"/>
</svg>
