<svg width="54" height="54" viewBox="0 0 54 54" fill="none" xmlns="http://www.w3.org/2000/svg">
<circle cx="27" cy="27" r="27" fill="#73D177"/>
<path d="M21.5705 24.9919C21.3379 24.9908 21.1245 24.863 21.0136 24.6586C20.5446 23.7816 19.6309 23.234 18.6363 23.234C17.6418 23.234 16.728 23.7816 16.2591 24.6586C16.0901 24.9673 15.7029 25.0806 15.3942 24.9117C15.0855 24.7428 14.9722 24.3556 15.1411 24.0469C15.8303 22.7583 17.1729 21.9538 18.6342 21.9538C20.0955 21.9538 21.4381 22.7583 22.1273 24.0469C22.284 24.3514 22.17 24.7254 21.87 24.8906C21.7801 24.9487 21.6772 24.9835 21.5705 24.9919Z" fill="#4F965A"/>
<path d="M33.3281 24.9919C33.0991 24.9993 32.8837 24.883 32.7642 24.6876C32.6446 24.4921 32.6393 24.2474 32.7502 24.0469C33.4394 22.7583 34.782 21.9538 36.2433 21.9538C37.7046 21.9538 39.0472 22.7583 39.7364 24.0469C39.8543 24.2467 39.8534 24.4951 39.734 24.694C39.6145 24.893 39.3958 25.0106 39.164 25.0006C38.9322 24.9906 38.7244 24.8545 38.6227 24.6459C38.1537 23.7689 37.2399 23.2213 36.2454 23.2213C35.2509 23.2213 34.3371 23.7689 33.8681 24.6459C33.7635 24.8501 33.5573 24.9822 33.3281 24.9919Z" fill="#4F965A"/>
<path fill-rule="evenodd" clip-rule="evenodd" d="M21.6802 39.4917C22.043 41.7656 24.3295 43.4827 27 43.4827C29.6705 43.4827 31.957 41.7656 32.3283 39.4917C32.3301 39.4594 32.3301 39.427 32.3283 39.3947V31.9908C32.3283 31.6413 32.045 31.358 31.6955 31.358H22.313C21.9635 31.358 21.6802 31.6413 21.6802 31.9908V39.3947C21.6783 39.427 21.6783 39.4594 21.6802 39.4917Z" fill="#50935B"/>
</svg>
