<svg width="54" height="54" viewBox="0 0 54 54" fill="none" xmlns="http://www.w3.org/2000/svg">
<path fill-rule="evenodd" clip-rule="evenodd" d="M0 27C0 12.0883 12.0883 0 27 0C34.1608 0 41.0284 2.84463 46.0919 7.90812C51.1554 12.9716 54 19.8392 54 27C54 41.9117 41.9117 54 27 54C12.0883 54 0 41.9117 0 27Z" fill="#FF6E72"/>
<path d="M36.3909 39.998C36.2629 39.9993 36.1377 39.961 36.0323 39.8883C33.0605 37.8266 29.4789 36.8305 25.8694 37.0617C23.0308 37.2745 20.3023 38.2496 17.9719 39.8841C17.7865 40.0137 17.546 40.0345 17.3411 39.9388C17.1361 39.8431 16.9978 39.6453 16.9783 39.4199C16.9587 39.1945 17.0609 38.9759 17.2462 38.8462C19.7651 37.0813 22.7136 36.029 25.7808 35.8003C29.676 35.5489 33.5417 36.6224 36.7495 38.8462C36.9756 39.004 37.0735 39.29 36.9915 39.5533C36.9096 39.8165 36.6666 39.9964 36.3909 39.998Z" fill="#C43F36"/>
<path d="M18.2033 21.3975C18.0661 21.3001 17.8955 21.2617 17.7298 21.291C17.5641 21.3204 17.417 21.415 17.3216 21.5536L16.7436 22.3594L16.1699 21.5367C16.0446 21.3357 15.8175 21.2214 15.5814 21.2407C15.3453 21.2599 15.1397 21.4094 15.0486 21.6281C14.9576 21.8468 14.9963 22.0981 15.149 22.2792L15.9927 23.4773L15.149 24.6797C15.0529 24.8166 15.0153 24.9862 15.0446 25.1509C15.0739 25.3156 15.1676 25.4618 15.3051 25.5572C15.4103 25.6342 15.5374 25.6756 15.6679 25.6753C15.8742 25.674 16.0673 25.5736 16.1868 25.4053L16.7605 24.5827L17.3385 25.4053C17.4346 25.5433 17.5819 25.637 17.7476 25.6655C17.9133 25.6941 18.0835 25.655 18.2202 25.5572C18.3579 25.4619 18.4515 25.3153 18.4801 25.1503C18.5087 24.9853 18.4697 24.8157 18.3721 24.6797L17.5283 23.4773L18.3721 22.2792C18.4683 22.1404 18.5046 21.9688 18.4729 21.8029C18.4411 21.6371 18.344 21.4909 18.2033 21.3975Z" fill="#C24138"/>
<path d="M35.7111 23.4773L36.5549 22.2792C36.7553 21.9926 36.6854 21.5979 36.3988 21.3975C36.1122 21.1971 35.7175 21.267 35.5171 21.5536L34.9391 22.3594L34.3654 21.5367C34.2357 21.3513 34.0171 21.2492 33.7917 21.2687C33.5663 21.2883 33.3685 21.4266 33.2728 21.6315C33.1771 21.8365 33.1979 22.077 33.3275 22.2623L34.1713 23.4605L33.3275 24.6628C33.2315 24.7997 33.1939 24.9693 33.2232 25.134C33.2525 25.2987 33.3462 25.4449 33.4836 25.5403C33.5889 25.6174 33.716 25.6587 33.8465 25.6584C34.0528 25.6572 34.2459 25.5567 34.3654 25.3884L34.9391 24.5658L35.5171 25.3884C35.6365 25.5567 35.8297 25.6572 36.036 25.6584C36.1664 25.6587 36.2935 25.6174 36.3988 25.5403C36.5362 25.4449 36.63 25.2987 36.6592 25.134C36.6885 24.9693 36.651 24.7997 36.5549 24.6628L35.7111 23.4773Z" fill="#C24138"/>
</svg>
