<?xml version="1.0" encoding="UTF-8"?>
<svg width="64px" height="61px" viewBox="0 0 64 61" version="1.1" xmlns="http://www.w3.org/2000/svg" xmlns:xlink="http://www.w3.org/1999/xlink">
    <!-- Generator: Sketch 61 (89581) - https://sketch.com -->
    <title>Fire</title>
    <desc>Created with Sketch.</desc>
    <g id="PriceLanding" stroke="none" stroke-width="1" fill="none" fill-rule="evenodd">
        <g id="Popup-DC">
            <g id="Fire" transform="translate(-8.000000, -11.000000)">
                <path d="M43.355,38.869 C43.38,38.753 45.14,39.028 47.12,39.439 C49.102,39.844 51.3,40.395 52.231,40.661 C54.094,41.191 54.451,41.51 54.383,41.736 C54.314,41.968 53.848,42.02 51.996,41.493 C51.072,41.224 48.91,40.595 46.973,40.032 C45.038,39.472 43.329,38.987 43.355,38.869" id="Fill-129" fill="#E67830"></path>
                <path d="M45.314,42.932 C45.373,42.829 46.506,43.35 47.756,44.017 C49.006,44.68 50.368,45.493 50.935,45.865 C52.069,46.607 52.209,46.943 52.076,47.139 C51.941,47.339 51.587,47.325 50.463,46.589 C49.901,46.221 48.602,45.333 47.439,44.54 C46.278,43.744 45.254,43.036 45.314,42.932" id="Fill-130" fill="#FBF1DE"></path>
                <path d="M40.717,42.864 C40.803,42.783 42.112,44.027 43.527,45.512 C44.945,46.993 46.461,48.719 47.085,49.477 C48.334,50.993 48.45,51.463 48.265,51.61 C48.077,51.762 47.66,51.535 46.418,50.028 C45.802,49.272 44.36,47.502 43.069,45.917 C41.776,44.335 40.629,42.946 40.717,42.864" id="Fill-131" fill="#E67830"></path>
                <path d="M37.672,41.797 C37.779,41.746 38.831,43.683 39.925,45.936 C41.025,48.185 42.155,50.753 42.607,51.863 C43.512,54.085 43.516,54.659 43.297,54.745 C43.071,54.833 42.707,54.401 41.806,52.191 C41.357,51.086 40.321,48.493 39.367,46.186 C38.419,43.877 37.563,41.85 37.672,41.797" id="Fill-132" fill="#FBF1DE"></path>
                <path d="M36.573,46.563 C36.69,46.546 37.019,48.036 37.302,49.744 C37.589,51.452 37.821,53.379 37.891,54.205 C38.031,55.858 37.856,56.242 37.62,56.259 C37.379,56.276 37.168,55.921 37.029,54.28 C36.968,53.459 36.824,51.539 36.695,49.817 C36.568,48.098 36.454,46.581 36.573,46.563" id="Fill-133" fill="#5FBDB7"></path>
                <path d="M34.26,43.285 C34.376,43.303 34.169,45.319 33.826,47.596 C33.489,49.873 33.007,52.406 32.768,53.482 C32.292,55.635 31.98,56.068 31.75,56.014 C31.515,55.959 31.45,55.438 31.923,53.297 C32.163,52.227 32.723,49.724 33.225,47.484 C33.72,45.245 34.14,43.266 34.26,43.285" id="Fill-134" fill="#5FBDB7"></path>
                <path d="M29.757,47.51 C29.863,47.562 29.447,48.649 28.902,49.851 C28.359,51.054 27.681,52.368 27.367,52.916 C26.739,54.013 26.423,54.154 26.219,54.034 C26.012,53.911 25.994,53.574 26.615,52.488 C26.927,51.945 27.683,50.69 28.361,49.566 C29.041,48.445 29.649,47.457 29.757,47.51" id="Fill-135" fill="#FBF1DE"></path>
                <path d="M28.99,43.236 C29.076,43.317 28.035,44.569 26.781,45.927 C25.53,47.289 24.062,48.749 23.413,49.351 C22.116,50.557 21.687,50.672 21.528,50.497 C21.367,50.318 21.535,49.916 22.823,48.719 C23.472,48.126 24.99,46.738 26.349,45.494 C27.708,44.252 28.903,43.153 28.99,43.236" id="Fill-136" fill="#FBF1DE"></path>
                <path d="M29.916,39.73 C29.973,39.833 28.221,40.933 26.175,42.089 C24.131,43.25 21.79,44.455 20.775,44.94 C18.745,45.912 18.202,45.938 18.103,45.724 C18.001,45.504 18.38,45.128 20.4,44.161 C21.411,43.68 23.775,42.554 25.891,41.547 C28.003,40.534 29.857,39.625 29.916,39.73" id="Fill-137" fill="#5FBDB7"></path>
                <path d="M24.7,38.721 C24.724,38.837 23.438,39.217 21.955,39.564 C20.474,39.915 18.797,40.225 18.076,40.33 C16.633,40.539 16.284,40.383 16.253,40.148 C16.222,39.909 16.519,39.682 17.95,39.474 C18.666,39.371 20.344,39.157 21.846,38.962 C23.348,38.77 24.675,38.604 24.7,38.721" id="Fill-138" fill="#FBF1DE"></path>
                <path d="M27.9700584,35.879 C27.959,35.996 26.096,35.925 23.986,35.742 C21.876,35.564 19.523,35.264 18.522,35.103 C16.519,34.785 16.106,34.506 16.147,34.274 C16.188,34.036 16.665,33.932 18.656,34.249 C19.651,34.412 21.978,34.793 24.061,35.135 C26.143,35.473 27.982,35.759 27.9700584,35.879" id="Fill-139" fill="#E67830"></path>
                <path d="M25.632,32.297 C25.585,32.406 24.299,31.982 22.868,31.419 C21.436,30.86 19.865,30.155 19.206,29.828 C17.887,29.174 17.685,28.845 17.793,28.635 C17.903,28.42 18.28,28.404 19.588,29.052 C20.243,29.377 21.76,30.163 23.121,30.862 C24.479,31.564 25.678,32.186 25.632,32.297" id="Fill-140" fill="#5FBDB7"></path>
                <path d="M30.032,31.937 C29.956,32.027 28.436,30.886 26.773,29.509 C25.107,28.136 23.308,26.521 22.561,25.807 C21.066,24.379 20.879,23.909 21.044,23.741 C21.213,23.568 21.671,23.76 23.157,25.18 C23.898,25.893 25.629,27.56 27.18,29.052 C28.732,30.541 30.11,31.844 30.032,31.937" id="Fill-141" fill="#5FBDB7"></path>
                <path d="M30.206,27.904 C30.106,27.968 29.25,26.827 28.35,25.481 C27.447,24.136 26.509,22.584 26.134,21.906 C25.382,20.549 25.395,20.148 25.604,20.037 C25.816,19.923 26.143,20.139 26.889,21.485 C27.262,22.158 28.11,23.747 28.874,25.165 C29.635,26.586 30.307,27.84 30.206,27.904" id="Fill-142" fill="#FBF1DE"></path>
                <path d="M34.001,30.59 C33.887,30.621 33.248,28.683 32.625,26.449 C31.996,24.217 31.395,21.69 31.171,20.603 C30.721,18.428 30.828,17.902 31.059,17.857 C31.297,17.811 31.57,18.263 32.018,20.426 C32.239,21.508 32.756,24.039 33.219,26.304 C33.688,28.567 34.118,30.559 34.001,30.59" id="Fill-143" fill="#E67830"></path>
                <path d="M36.219,26.658013 C36.101,26.654 36.046,25.202 36.073,23.553 C36.096,21.904 36.209,20.06 36.287,19.274 C36.442,17.702 36.682,17.374 36.917,17.4 C37.156,17.427 37.301,17.797 37.148,19.357 C37.063,20.136 36.862,21.958 36.683,23.592 C36.5,25.222 36.34,26.663 36.219,26.658013" id="Fill-144" fill="#FBF1DE"></path>
                <path d="M38.234,29.834 C38.123,29.794 38.641,27.997 39.328,25.987 C40.009,23.976 40.869,21.757 41.266,20.821 C42.059,18.947 42.428,18.613 42.644,18.708 C42.865,18.805 42.851,19.294 42.063,21.156 C41.665,22.085 40.733,24.26 39.899,26.206 C39.069,28.152 38.348,29.874 38.234,29.834" id="Fill-145" fill="#5FBDB7"></path>
                <path d="M42.661,27.925 C42.566,27.855 43.231,26.782 44.056,25.611 C44.877,24.439 45.863,23.173 46.306,22.651 C47.192,21.604 47.545,21.505 47.723,21.66 C47.905,21.818 47.846,22.171 46.967,23.208 C46.527,23.727 45.476,24.92 44.536,25.99 C43.593,27.057 42.757,27.997 42.661,27.925" id="Fill-146" fill="#5FBDB7"></path>
                <path d="M43.833,31.242 C43.763,31.147 44.893,30.193 46.234,29.181 C47.571,28.165 49.121,27.099 49.8,26.669 C51.157,25.806 51.569,25.789 51.693,25.991 C51.82,26.196 51.612,26.542 50.265,27.398 C49.587,27.818 48.001,28.803 46.579,29.685 C45.157,30.563 43.903,31.34 43.833,31.242" id="Fill-147" fill="#FCE81E"></path>
                <path d="M40.617,35.311 C40.579,35.199 42.637,34.39 45.013,33.579 C47.387,32.761 50.081,31.952 51.242,31.64 C53.564,31.012 54.136,31.079 54.194,31.306 C54.254,31.541 53.78,31.85 51.469,32.474 C50.313,32.785 47.606,33.497 45.193,34.163 C42.778,34.823 40.656,35.425 40.617,35.311" id="Fill-148" fill="#FBF1DE"></path>
                <path d="M45.7279953,36.983 C45.725,36.864 47.169,36.723 48.815,36.651 C50.461,36.576 52.306,36.579 53.094,36.61 C54.67,36.67 55.012,36.89 55,37.126 C54.987,37.367 54.627,37.534 53.063,37.474 C52.281,37.435 50.452,37.344 48.813,37.263 C47.176,37.178 45.73,37.103 45.7279953,36.983" id="Fill-149" fill="#5FBDB7"></path>
                <path d="M44.541,56.786 C44.986,56.604 48.416,64.408 49.251,66.571 C50.086,68.733 49.907,69.352 49.457,69.519 C49.006,69.686 48.454,69.339 47.623,67.185 C46.792,65.033 44.097,56.968 44.541,56.786" id="Fill-150" fill="#FCE81E"></path>
                <path d="M30.479,63.16 C30.714,63.209 29.644,68.583 29.301,70.034 C28.958,71.485 28.692,71.761 28.46,71.701 C28.227,71.642 28.115,71.27 28.456,69.826 C28.798,68.382 30.244,63.111 30.479,63.16" id="Fill-151" fill="#FBF1DE"></path>
                <path d="M23.761,58.143 C24.177,58.384 20.964,64.49 19.998,66.098 C19.033,67.705 18.486,67.86 18.077,67.608 C17.667,67.356 17.551,66.793 18.512,65.192 C19.473,63.593 23.345,57.902 23.761,58.143" id="Fill-152" fill="#E67830"></path>
                <path d="M15.876,46.366 C16.084,46.799 8.489,50.694 6.377,51.658 C4.266,52.621 3.637,52.48 3.444,52.04 C3.25,51.6 3.564,51.028 5.667,50.069 C7.768,49.11 15.667,45.933 15.876,46.366" id="Fill-153" fill="#FCE81E"></path>
                <path d="M12.387,33.093 C12.311,33.568 4.669,32.592 2.607,32.222 C0.547,31.852 0.16,31.386 0.25,30.914 C0.341,30.443 0.875,30.143 2.927,30.511 C4.978,30.879 12.463,32.619 12.387,33.093" id="Fill-154" fill="#5FBDB7"></path>
                <path d="M23.879,15.91 C23.459,16.142 19.536,9.558 18.562,7.716 C17.588,5.875 17.717,5.285 18.144,5.066 C18.572,4.846 19.136,5.079 20.106,6.913 C21.075,8.746 24.3,15.677 23.879,15.91" id="Fill-155" fill="#5FBDB7"></path>
                <path d="M37.698,11.861 C37.22,11.812 37.671,4.75 37.9,2.84 C38.128,0.931 38.565,0.554 39.041,0.617 C39.518,0.68 39.854,1.156 39.626,3.058 C39.399,4.958 38.176,11.91 37.698,11.861" id="Fill-156" fill="#FCE81E"></path>
                <path d="M55.856,23.042 C55.599,22.636 61.672,18.493 63.38,17.455 C65.088,16.419 65.668,16.522 65.913,16.936 C66.157,17.35 65.974,17.916 64.273,18.949 C62.574,19.981 56.112,23.449 55.856,23.042" id="Fill-157" fill="#E67830"></path>
                <path d="M59.6319919,36.863 C59.64,36.535 67.16,36.666 69.203,36.774 C71.245,36.882 71.684,37.172 71.66,37.499 C71.637,37.826 71.162,38.067 69.128,37.959 C67.095,37.852 59.623,37.191 59.6319919,36.863" id="Fill-158" fill="#E67830"></path>
                <path d="M60.512,44.693 C60.676,44.241 66.501,46.037 68.049,46.625 C69.596,47.212 69.801,47.707 69.626,48.154 C69.45,48.602 68.963,48.833 67.422,48.248 C65.882,47.663 60.348,45.145 60.512,44.693" id="Fill-159" fill="#5FBDB7"></path>
                <path d="M39.862,38.965 C39.757,39.148 39.524,39.212 39.341,39.108 C39.158,39.004 39.094,38.771 39.198,38.588 C39.302,38.405 39.535,38.341 39.719,38.445 C39.902,38.549 39.966,38.782 39.862,38.965" id="Fill-160" fill="#FBF1DE"></path>
                <path d="M42.536,33.122 C42.43,33.308 42.194,33.373 42.008,33.267 C41.822,33.161 41.757,32.925 41.863,32.739 C41.968,32.553 42.205,32.488 42.391,32.594 C42.577,32.7 42.642,32.936 42.536,33.122" id="Fill-161" fill="#FBF1DE"></path>
                <path d="M37.955,35.283 C37.865,35.44 37.666,35.495 37.509,35.405 C37.352,35.316 37.297,35.116 37.386,34.959 C37.475,34.802 37.675,34.747 37.832,34.837 C37.989,34.926 38.044,35.126 37.955,35.283" id="Fill-162" fill="#FBF1DE"></path>
                <path d="M32.874,31.308 C32.727,31.567 32.398,31.657 32.139,31.51 C31.881,31.363 31.79,31.034 31.938,30.775 C32.085,30.517 32.414,30.426 32.672,30.573 C32.931,30.721 33.021,31.049 32.874,31.308" id="Fill-163" fill="#FBF1DE"></path>
                <path d="M35.309,33.087 C35.161,33.348 34.828,33.44 34.567,33.291 C34.306,33.142 34.214,32.81 34.363,32.549 C34.512,32.287 34.844,32.196 35.105,32.345 C35.366,32.493 35.458,32.826 35.309,33.087" id="Fill-164" fill="#FBF1DE"></path>
                <path d="M31.5,34.588 C31.41,34.747 31.209,34.802 31.051,34.712 C30.892,34.622 30.837,34.42 30.927,34.262 C31.017,34.103 31.218,34.048 31.377,34.138 C31.535,34.228 31.59,34.43 31.5,34.588" id="Fill-165" fill="#FBF1DE"></path>
                <path d="M34.536,36.851 C34.426,37.045 34.179,37.113 33.984,37.003 C33.79,36.892 33.722,36.645 33.833,36.451 C33.943,36.256 34.19,36.188 34.385,36.299 C34.579,36.409 34.647,36.657 34.536,36.851" id="Fill-166" fill="#FBF1DE"></path>
                <path d="M31.003,38.83 C30.867,39.068 30.564,39.152 30.325,39.016 C30.086,38.88 30.003,38.576 30.138,38.338 C30.275,38.099 30.578,38.015 30.817,38.151 C31.055,38.287 31.139,38.591 31.003,38.83" id="Fill-167" fill="#FBF1DE"></path>
                <path d="M32.905,41.829 C32.792,42.027 32.54,42.097 32.342,41.984 C32.144,41.871 32.075,41.619 32.188,41.421 C32.3,41.223 32.552,41.154 32.75,41.267 C32.948,41.379 33.018,41.631 32.905,41.829" id="Fill-168" fill="#FBF1DE"></path>
                <path d="M35.937,40.804 C35.87,40.921 35.721,40.962 35.603,40.896 C35.486,40.829 35.445,40.679 35.511,40.562 C35.578,40.444 35.728,40.403 35.845,40.47 C35.963,40.537 36.004,40.686 35.937,40.804" id="Fill-169" fill="#FBF1DE"></path>
                <path d="M36.893,37.866 C36.8,38.029 36.592,38.087 36.429,37.993 C36.265,37.9 36.208,37.692 36.301,37.529 C36.394,37.365 36.602,37.308 36.766,37.401 C36.929,37.494 36.986,37.702 36.893,37.866" id="Fill-170" fill="#FBF1DE"></path>
                <path d="M41.595,37.641 C41.512,37.787 41.326,37.838 41.179,37.755 C41.032,37.672 40.981,37.485 41.065,37.339 C41.148,37.192 41.334,37.141 41.481,37.224 C41.627,37.308 41.679,37.494 41.595,37.641" id="Fill-171" fill="#FBF1DE"></path>
                <path d="M29.212,34.308 C29.112,34.483 28.889,34.544 28.714,34.444 C28.539,34.345 28.477,34.122 28.577,33.947 C28.677,33.771 28.9,33.71 29.075,33.81 C29.25,33.91 29.311,34.132 29.212,34.308" id="Fill-172" fill="#FBF1DE"></path>
                <path d="M42.616,41.575 C42.508,41.765 42.267,41.831 42.078,41.723 C41.888,41.616 41.822,41.375 41.93,41.185 C42.038,40.995 42.279,40.929 42.468,41.037 C42.657,41.145 42.724,41.386 42.616,41.575" id="Fill-173" fill="#FBF1DE"></path>
                <path d="M40.506,30.305 C40.395,30.501 40.146,30.57 39.95,30.458 C39.754,30.347 39.685,30.097 39.797,29.901 C39.908,29.705 40.157,29.637 40.353,29.748 C40.549,29.86 40.618,30.109 40.506,30.305" id="Fill-174" fill="#FBF1DE"></path>
                <path d="M47.996,41.917 C48.012,41.88 48.607,42.094 49.529,42.457 C50.451,42.821 51.698,43.335 53.019,43.897 C55.662,45.018 58.592,46.34 59.835,46.926 C62.322,48.097 62.816,48.491 62.746,48.637 C62.674,48.787 62.065,48.634 59.582,47.465 C58.343,46.879 55.443,45.508 52.847,44.281 C51.553,43.67 50.336,43.095 49.436,42.67 C48.544,42.241 47.979,41.956 47.996,41.917" id="Fill-175" fill="#5FBDB7"></path>
                <path d="M52.063,50.795 C52.172,50.672 55.96,53.948 56.967,54.866 C57.972,55.784 58.107,56.087 57.995,56.207 C57.883,56.327 57.567,56.22 56.563,55.303 C55.559,54.387 51.954,50.918 52.063,50.795" id="Fill-176" fill="#FBF1DE"></path>
                <path d="M45.47,52.297 C45.54,52.254 46.498,53.731 47.56,55.425 C48.622,57.119 49.788,59.03 50.274,59.855 C51.247,61.504 51.349,61.939 51.206,62.02 C51.064,62.102 50.731,61.799 49.759,60.153 C49.274,59.33 48.167,57.388 47.199,55.64 C46.23,53.893 45.4,52.34 45.47,52.297" id="Fill-177" fill="#E67830"></path>
                <path d="M41.584,59.377 C41.744,59.338 42.753,63.157 42.993,64.205 C43.232,65.251 43.156,65.514 42.995,65.55 C42.835,65.585 42.651,65.38 42.412,64.335 C42.173,63.29 41.424,59.415 41.584,59.377" id="Fill-178" fill="#FBF1DE"></path>
                <path d="M35.086,51.9789947 C35.127,51.981 35.139,52.549 35.127,53.437 C35.115,54.325 35.079,55.534 35.027,56.82 C34.924,59.391 34.745,62.267 34.648,63.495 C34.453,65.952 34.268,66.489 34.106,66.475 C33.94,66.461 33.861,65.901 34.054,63.449 C34.156,62.225 34.394,59.36 34.607,56.794 C34.716,55.516 34.819,54.314 34.896,53.425 C34.979,52.541 35.045,51.977 35.086,51.9789947" id="Fill-179" fill="#5FBDB7"></path>
                <path d="M28.699,56.22 C28.853,56.278 26.885,61.622 26.315,63.063 C25.746,64.503 25.496,64.775 25.344,64.713 C25.192,64.651 25.195,64.279 25.764,62.841 C26.332,61.403 28.546,56.162 28.699,56.22" id="Fill-180" fill="#E67830"></path>
                <path d="M22.892,53.747 C23.022,53.848 19.765,58.094 18.851,59.227 C17.937,60.359 17.63,60.527 17.503,60.423 C17.376,60.318 17.478,59.98 18.39,58.85 C19.303,57.72 22.763,53.646 22.892,53.747" id="Fill-181" fill="#FBF1DE"></path>
                <path d="M20.67,47.679 C20.717,47.747 19.298,48.792 17.668,49.954 C16.039,51.117 14.198,52.397 13.403,52.932 C11.813,54.003 11.385,54.131 11.295,53.993 C11.205,53.856 11.487,53.505 13.075,52.436 C13.868,51.901 15.743,50.679 17.432,49.606 C19.12,48.534 20.623,47.612 20.67,47.679" id="Fill-182" fill="#5FBDB7"></path>
                <path d="M14.159,43.989 C14.208,44.146 9.957,45.532 8.79,45.875 C7.624,46.217 7.326,46.165 7.281,46.007 C7.237,45.849 7.461,45.645 8.625,45.303 C9.79,44.961 14.111,43.832 14.159,43.989" id="Fill-183" fill="#FCE81E"></path>
                <path d="M16.025,37.322 C16.025,37.486 9.666,37.537 7.936,37.514 C6.206,37.491 5.822,37.353 5.82695205,37.189 C5.831,37.025 6.221,36.897 7.948,36.919 C9.674,36.942 16.024,37.158 16.025,37.322" id="Fill-184" fill="#5FBDB7"></path>
                <path d="M14.951,30.93 C14.902,31.087 9.942,29.597 8.604,29.157 C7.266,28.717 7.01,28.493 7.063,28.337 C7.116,28.182 7.458,28.154 8.793,28.593 C10.128,29.032 15,30.773 14.951,30.93" id="Fill-185" fill="#FBF1DE"></path>
                <path d="M15.643,23.677 C15.549,23.811 12.5,21.786 11.691,21.205 C10.883,20.625 10.781,20.387 10.877,20.255 C10.974,20.122 11.233,20.144 12.04,20.723 C12.847,21.303 15.738,23.542 15.643,23.677" id="Fill-186" fill="#E67830"></path>
                <path d="M23.074,21.745 C22.945,21.847 19.005,16.895 17.962,15.526 C16.919,14.157 16.793,13.772 16.925,13.674 C17.057,13.576 17.397,13.802 18.438,15.169 C19.479,16.535 23.202,21.643 23.074,21.745" id="Fill-187" fill="#FBF1DE"></path>
                <path d="M27.85,17.997 C27.697,18.056 25.581,12.61 25.039,11.116 C24.497,9.623 24.502,9.245 24.657,9.191 C24.812,9.137 25.059,9.426 25.599,10.918 C26.14,12.408 28.004,17.939 27.85,17.997" id="Fill-188" fill="#E67830"></path>
                <path d="M33.8,16.5690129 C33.636,16.579 33.237,10.752 33.164,9.164 C33.092,7.578 33.209,7.218 33.373,7.21194749 C33.537,7.207 33.686,7.557 33.759,9.141 C33.831,10.725 33.964,16.559 33.8,16.5690129" id="Fill-189" fill="#5FBDB7"></path>
                <path d="M41.345,11.393 C41.186,11.351 41.642,9.15 41.801,8.56 C41.96,7.971 42.124,7.874 42.282,7.918 C42.441,7.961 42.534,8.128 42.375,8.717 C42.216,9.305 41.503,11.434 41.345,11.393" id="Fill-190" fill="#E67830"></path>
                <path d="M48.482,14.547 C48.343,14.46 49.537,12.328 49.893,11.768 C50.248,11.208 50.44,11.154 50.578,11.243 C50.717,11.332 50.749,11.529 50.394,12.088 C50.04,12.647 48.622,14.634 48.482,14.547" id="Fill-191" fill="#E67830"></path>
                <path d="M50.13,23.232 C50.021,23.109 54.534,19.052 55.786,17.976 C57.037,16.9 57.403,16.761 57.509,16.887 C57.614,17.013 57.42,17.355 56.171,18.429 C54.922,19.503 50.24,23.354 50.13,23.232" id="Fill-192" fill="#E67830"></path>
                <path d="M58.389,26.06 C58.323,25.909 60.8,24.712 61.489,24.42 C62.176,24.128 62.382,24.186 62.445,24.337 C62.509,24.489 62.406,24.677 61.719,24.969 C61.033,25.26 58.454,26.211 58.389,26.06" id="Fill-193" fill="#FBF1DE"></path>
                <path d="M50.4309667,34.548 C50.426,34.507 50.985,34.394 51.865,34.247 C52.746,34.1 53.948,33.918 55.228,33.74 C57.789,33.381 60.665,33.043 61.897,32.919 C64.36,32.671 64.925,32.758 64.94,32.92 C64.956,33.085 64.417,33.263 61.957,33.511 C60.728,33.63 57.853,33.908 55.278,34.158 C53.995,34.279 52.788,34.392 51.894,34.477 C51.006,34.553 50.437,34.589 50.4309667,34.548" id="Fill-194" fill="#5FBDB7"></path>
                <path d="M56.863,40.266 C56.893,40.105 61.848,40.965 63.189,41.235 C64.53,41.504 64.802,41.695 64.768,41.855 C64.734,42.016 64.407,42.086 63.068,41.817 C61.73,41.548 56.833,40.428 56.863,40.266" id="Fill-195" fill="#FBF1DE"></path>
            </g>
        </g>
    </g>
</svg>