<?xml version="1.0" encoding="UTF-8"?>
<svg width="253px" height="177px" viewBox="0 0 253 177" version="1.1" xmlns="http://www.w3.org/2000/svg" xmlns:xlink="http://www.w3.org/1999/xlink">
    <!-- Generator: Sketch 61 (89581) - https://sketch.com -->
    <title>Vector</title>
    <desc>Created with Sketch.</desc>
    <defs>
        <path d="M3.7474243,12.9124733 C4.1634243,12.9124733 4.5354243,12.8544733 4.8634243,12.7384733 C5.1914243,12.6224733 5.4714243,12.4624733 5.7034243,12.2584733 C5.9354243,12.0544733 6.1134243,11.8164733 6.2374243,11.5444733 C6.3614243,11.2724733 6.4234243,10.9804733 6.4234243,10.6684733 C6.4234243,10.3804733 6.3814243,10.1264733 6.2974243,9.9064733 C6.2134243,9.6864733 6.0994243,9.4944733 5.9554243,9.3304733 C5.8114243,9.1664733 5.6394243,9.0224733 5.4394243,8.8984733 C5.2394243,8.7744733 5.0274243,8.6644733 4.8034243,8.5684733 L4.8034243,8.5684733 L3.6874243,8.0884733 C3.5274243,8.0244733 3.3714243,7.9544733 3.2194243,7.8784733 C3.0674243,7.8024733 2.9274243,7.7144733 2.7994243,7.6144733 C2.6714243,7.5144733 2.5694243,7.3984733 2.4934243,7.2664733 C2.4174243,7.1344733 2.3794243,6.9724733 2.3794243,6.7804733 C2.3794243,6.4204733 2.5134243,6.1384733 2.7814243,5.9344733 C3.0494243,5.7304733 3.4034243,5.6284733 3.8434243,5.6284733 C4.2114243,5.6284733 4.5414243,5.6944733 4.8334243,5.8264733 C5.1254243,5.9584733 5.3914243,6.1404733 5.6314243,6.3724733 L5.6314243,6.3724733 L6.1714243,5.7244733 C5.8914243,5.4364733 5.5514243,5.2024733 5.1514243,5.0224733 C4.7514243,4.8424733 4.3154243,4.7524733 3.8434243,4.7524733 C3.4834243,4.7524733 3.1534243,4.8044733 2.8534243,4.9084733 C2.5534243,5.0124733 2.2934243,5.1584733 2.0734243,5.3464733 C1.8534243,5.5344733 1.6814243,5.7564733 1.5574243,6.0124733 C1.4334243,6.2684733 1.3714243,6.5444733 1.3714243,6.8404733 C1.3714243,7.1284733 1.4194243,7.3824733 1.5154243,7.6024733 C1.6114243,7.8224733 1.7354243,8.0124733 1.8874243,8.1724733 C2.0394243,8.3324733 2.2114243,8.4684733 2.4034243,8.5804733 C2.5954243,8.6924733 2.7834243,8.7884733 2.9674243,8.8684733 L2.9674243,8.8684733 L4.0954243,9.3604733 C4.2794243,9.4484733 4.4514243,9.5324733 4.6114243,9.6124733 C4.7714243,9.6924733 4.9094243,9.7824733 5.0254243,9.8824733 C5.1414243,9.9824733 5.2334243,10.1024733 5.3014243,10.2424733 C5.3694243,10.3824733 5.4034243,10.5524733 5.4034243,10.7524733 C5.4034243,11.1364733 5.2594243,11.4464733 4.9714243,11.6824733 C4.6834243,11.9184733 4.2794243,12.0364733 3.7594243,12.0364733 C3.3514243,12.0364733 2.9574243,11.9464733 2.5774243,11.7664733 C2.1974243,11.5864733 1.8674243,11.3484733 1.5874243,11.0524733 L1.5874243,11.0524733 L0.9874243,11.7484733 C1.3314243,12.1084733 1.7394243,12.3924733 2.2114243,12.6004733 C2.6834243,12.8084733 3.1954243,12.9124733 3.7474243,12.9124733 Z M9.2194243,12.9124733 C9.5874243,12.9124733 9.9314243,12.8304733 10.2514243,12.6664733 C10.5714243,12.5024733 10.8714243,12.3044733 11.1514243,12.0724733 L11.1514243,12.0724733 L11.1874243,12.0724733 L11.2714243,12.7684733 L12.0874243,12.7684733 L12.0874243,9.1924733 C12.0874243,8.4644733 11.9274243,7.8824733 11.6074243,7.4464733 C11.2874243,7.0104733 10.7714243,6.7924733 10.0594243,6.7924733 C9.5874243,6.7924733 9.1554243,6.8744733 8.7634243,7.0384733 C8.3714243,7.2024733 8.0394243,7.3724733 7.7674243,7.5484733 L7.7674243,7.5484733 L8.1514243,8.2324733 C8.3834243,8.0724733 8.6474243,7.9284733 8.9434243,7.8004733 C9.2394243,7.6724733 9.5554243,7.6084733 9.8914243,7.6084733 C10.1314243,7.6084733 10.3294243,7.6504733 10.4854243,7.7344733 C10.6414243,7.8184733 10.7634243,7.9284733 10.8514243,8.0644733 C10.9394243,8.2004733 11.0014243,8.3564733 11.0374243,8.5324733 C11.0734243,8.7084733 11.0914243,8.8884733 11.0914243,9.0724733 C9.8434243,9.2084733 8.9354243,9.4464733 8.3674243,9.7864733 C7.7994243,10.1264733 7.5154243,10.6164733 7.5154243,11.2564733 C7.5154243,11.7844733 7.6774243,12.1924733 8.0014243,12.4804733 C8.3254243,12.7684733 8.7314243,12.9124733 9.2194243,12.9124733 Z M9.5074243,12.1204733 C9.2194243,12.1204733 8.9754243,12.0484733 8.7754243,11.9044733 C8.5754243,11.7604733 8.4754243,11.5204733 8.4754243,11.1844733 C8.4754243,11.0004733 8.5214243,10.8304733 8.6134243,10.6744733 C8.7054243,10.5184733 8.8534243,10.3804733 9.0574243,10.2604733 C9.2614243,10.1404733 9.5294243,10.0364733 9.8614243,9.9484733 C10.1934243,9.8604733 10.6034243,9.7844733 11.0914243,9.7204733 L11.0914243,9.7204733 L11.0914243,11.3404733 C10.8114243,11.5964733 10.5474243,11.7904733 10.2994243,11.9224733 C10.0514243,12.0544733 9.7874243,12.1204733 9.5074243,12.1204733 Z M14.9074243,12.7684733 L14.9074243,8.5444733 C15.2034243,8.2484733 15.4674243,8.0244733 15.6994243,7.8724733 C15.9314243,7.7204733 16.1994243,7.6444733 16.5034243,7.6444733 C16.8874243,7.6444733 17.1674243,7.7664733 17.3434243,8.0104733 C17.5194243,8.2544733 17.6074243,8.6524733 17.6074243,9.2044733 L17.6074243,9.2044733 L17.6074243,12.7684733 L18.5914243,12.7684733 L18.5914243,9.0724733 C18.5914243,8.3204733 18.4494243,7.7524733 18.1654243,7.3684733 C17.8814243,6.9844733 17.4314243,6.7924733 16.8154243,6.7924733 C16.4074243,6.7924733 16.0494243,6.8864733 15.7414243,7.0744733 C15.4334243,7.2624733 15.1394243,7.4964733 14.8594243,7.7764733 L14.8594243,7.7764733 L14.8234243,7.7764733 L14.7394243,6.9364733 L13.9234243,6.9364733 L13.9234243,12.7684733 L14.9074243,12.7684733 Z M22.4794243,12.9124733 C22.8234243,12.9124733 23.1454243,12.8304733 23.4454243,12.6664733 C23.7454243,12.5024733 24.0114243,12.3084733 24.2434243,12.0844733 L24.2434243,12.0844733 L24.2794243,12.0844733 L24.3634243,12.7684733 L25.1794243,12.7684733 L25.1794243,4.2244733 L24.1834243,4.2244733 L24.1834243,6.4684733 L24.2314243,7.4644733 C23.9754243,7.2564733 23.7234243,7.0924733 23.4754243,6.9724733 C23.2274243,6.8524733 22.9354243,6.7924733 22.5994243,6.7924733 C22.2634243,6.7924733 21.9434243,6.8644733 21.6394243,7.0084733 C21.3354243,7.1524733 21.0674243,7.3564733 20.8354243,7.6204733 C20.6034243,7.8844733 20.4174243,8.2064733 20.2774243,8.5864733 C20.1374243,8.9664733 20.0674243,9.3924733 20.0674243,9.8644733 C20.0674243,10.8404733 20.2854243,11.5924733 20.7214243,12.1204733 C21.1574243,12.6484733 21.7434243,12.9124733 22.4794243,12.9124733 Z M22.6954243,12.0844733 C22.1834243,12.0844733 21.7874243,11.8884733 21.5074243,11.4964733 C21.2274243,11.1044733 21.0874243,10.5564733 21.0874243,9.8524733 C21.0874243,9.5164733 21.1314243,9.2124733 21.2194243,8.9404733 C21.3074243,8.6684733 21.4274243,8.4344733 21.5794243,8.2384733 C21.7314243,8.0424733 21.9094243,7.8904733 22.1134243,7.7824733 C22.3174243,7.6744733 22.5354243,7.6204733 22.7674243,7.6204733 C23.0074243,7.6204733 23.2414243,7.6664733 23.4694243,7.7584733 C23.6974243,7.8504733 23.9354243,8.0084733 24.1834243,8.2324733 L24.1834243,8.2324733 L24.1834243,11.2804733 C23.9434243,11.5524733 23.7034243,11.7544733 23.4634243,11.8864733 C23.2234243,12.0184733 22.9674243,12.0844733 22.6954243,12.0844733 Z M28.1314243,12.7684733 L28.1314243,9.0244733 C28.3314243,8.5284733 28.5654243,8.1804733 28.8334243,7.9804733 C29.1014243,7.7804733 29.3594243,7.6804733 29.6074243,7.6804733 C29.7274243,7.6804733 29.8274243,7.6884733 29.9074243,7.7044733 C29.9874243,7.7204733 30.0754243,7.7444733 30.1714243,7.7764733 L30.1714243,7.7764733 L30.3634243,6.9124733 C30.1794243,6.8324733 29.9714243,6.7924733 29.7394243,6.7924733 C29.4034243,6.7924733 29.0934243,6.9004733 28.8094243,7.1164733 C28.5254243,7.3324733 28.2834243,7.6244733 28.0834243,7.9924733 L28.0834243,7.9924733 L28.0474243,7.9924733 L27.9634243,6.9364733 L27.1474243,6.9364733 L27.1474243,12.7684733 L28.1314243,12.7684733 Z M32.3674243,12.9124733 C32.7354243,12.9124733 33.0794243,12.8304733 33.3994243,12.6664733 C33.7194243,12.5024733 34.0194243,12.3044733 34.2994243,12.0724733 L34.2994243,12.0724733 L34.3354243,12.0724733 L34.4194243,12.7684733 L35.2354243,12.7684733 L35.2354243,9.1924733 C35.2354243,8.4644733 35.0754243,7.8824733 34.7554243,7.4464733 C34.4354243,7.0104733 33.9194243,6.7924733 33.2074243,6.7924733 C32.7354243,6.7924733 32.3034243,6.8744733 31.9114243,7.0384733 C31.5194243,7.2024733 31.1874243,7.3724733 30.9154243,7.5484733 L30.9154243,7.5484733 L31.2994243,8.2324733 C31.5314243,8.0724733 31.7954243,7.9284733 32.0914243,7.8004733 C32.3874243,7.6724733 32.7034243,7.6084733 33.0394243,7.6084733 C33.2794243,7.6084733 33.4774243,7.6504733 33.6334243,7.7344733 C33.7894243,7.8184733 33.9114243,7.9284733 33.9994243,8.0644733 C34.0874243,8.2004733 34.1494243,8.3564733 34.1854243,8.5324733 C34.2214243,8.7084733 34.2394243,8.8884733 34.2394243,9.0724733 C32.9914243,9.2084733 32.0834243,9.4464733 31.5154243,9.7864733 C30.9474243,10.1264733 30.6634243,10.6164733 30.6634243,11.2564733 C30.6634243,11.7844733 30.8254243,12.1924733 31.1494243,12.4804733 C31.4734243,12.7684733 31.8794243,12.9124733 32.3674243,12.9124733 Z M32.6554243,12.1204733 C32.3674243,12.1204733 32.1234243,12.0484733 31.9234243,11.9044733 C31.7234243,11.7604733 31.6234243,11.5204733 31.6234243,11.1844733 C31.6234243,11.0004733 31.6694243,10.8304733 31.7614243,10.6744733 C31.8534243,10.5184733 32.0014243,10.3804733 32.2054243,10.2604733 C32.4094243,10.1404733 32.6774243,10.0364733 33.0094243,9.9484733 C33.3414243,9.8604733 33.7514243,9.7844733 34.2394243,9.7204733 L34.2394243,9.7204733 L34.2394243,11.3404733 C33.9594243,11.5964733 33.6954243,11.7904733 33.4474243,11.9224733 C33.1994243,12.0544733 32.9354243,12.1204733 32.6554243,12.1204733 Z M40.5634243,12.7684733 L40.5634243,9.0604733 L44.2234243,9.0604733 L44.2234243,12.7684733 L45.2314243,12.7684733 L45.2314243,4.8964733 L44.2234243,4.8964733 L44.2234243,8.1964733 L40.5634243,8.1964733 L40.5634243,4.8964733 L39.5674243,4.8964733 L39.5674243,12.7684733 L40.5634243,12.7684733 Z M49.5634243,12.9124733 C49.9234243,12.9124733 50.2654243,12.8444733 50.5894243,12.7084733 C50.9134243,12.5724733 51.1994243,12.3744733 51.4474243,12.1144733 C51.6954243,11.8544733 51.8934243,11.5344733 52.0414243,11.1544733 C52.1894243,10.7744733 52.2634243,10.3444733 52.2634243,9.8644733 C52.2634243,9.3764733 52.1894243,8.9424733 52.0414243,8.5624733 C51.8934243,8.1824733 51.6954243,7.8604733 51.4474243,7.5964733 C51.1994243,7.3324733 50.9134243,7.1324733 50.5894243,6.9964733 C50.2654243,6.8604733 49.9234243,6.7924733 49.5634243,6.7924733 C49.2034243,6.7924733 48.8614243,6.8604733 48.5374243,6.9964733 C48.2134243,7.1324733 47.9274243,7.3324733 47.6794243,7.5964733 C47.4314243,7.8604733 47.2334243,8.1824733 47.0854243,8.5624733 C46.9374243,8.9424733 46.8634243,9.3764733 46.8634243,9.8644733 C46.8634243,10.3444733 46.9374243,10.7744733 47.0854243,11.1544733 C47.2334243,11.5344733 47.4314243,11.8544733 47.6794243,12.1144733 C47.9274243,12.3744733 48.2134243,12.5724733 48.5374243,12.7084733 C48.8614243,12.8444733 49.2034243,12.9124733 49.5634243,12.9124733 Z M49.5634243,12.0964733 C49.3154243,12.0964733 49.0874243,12.0424733 48.8794243,11.9344733 C48.6714243,11.8264733 48.4934243,11.6744733 48.3454243,11.4784733 C48.1974243,11.2824733 48.0834243,11.0484733 48.0034243,10.7764733 C47.9234243,10.5044733 47.8834243,10.2004733 47.8834243,9.8644733 C47.8834243,9.5284733 47.9234243,9.2224733 48.0034243,8.9464733 C48.0834243,8.6704733 48.1974243,8.4324733 48.3454243,8.2324733 C48.4934243,8.0324733 48.6714243,7.8784733 48.8794243,7.7704733 C49.0874243,7.6624733 49.3154243,7.6084733 49.5634243,7.6084733 C49.8114243,7.6084733 50.0394243,7.6624733 50.2474243,7.7704733 C50.4554243,7.8784733 50.6334243,8.0324733 50.7814243,8.2324733 C50.9294243,8.4324733 51.0434243,8.6704733 51.1234243,8.9464733 C51.2034243,9.2224733 51.2434243,9.5284733 51.2434243,9.8644733 C51.2434243,10.2004733 51.2034243,10.5044733 51.1234243,10.7764733 C51.0434243,11.0484733 50.9294243,11.2824733 50.7814243,11.4784733 C50.6334243,11.6744733 50.4554243,11.8264733 50.2474243,11.9344733 C50.0394243,12.0424733 49.8114243,12.0964733 49.5634243,12.0964733 Z M56.1034243,12.9124733 C56.4554243,12.9124733 56.7914243,12.8464733 57.1114243,12.7144733 C57.4314243,12.5824733 57.7234243,12.4004733 57.9874243,12.1684733 L57.9874243,12.1684733 L57.5554243,11.5084733 C57.3714243,11.6684733 57.1654243,11.8064733 56.9374243,11.9224733 C56.7094243,12.0384733 56.4594243,12.0964733 56.1874243,12.0964733 C55.9234243,12.0964733 55.6794243,12.0424733 55.4554243,11.9344733 C55.2314243,11.8264733 55.0414243,11.6744733 54.8854243,11.4784733 C54.7294243,11.2824733 54.6074243,11.0484733 54.5194243,10.7764733 C54.4314243,10.5044733 54.3874243,10.2004733 54.3874243,9.8644733 C54.3874243,9.5284733 54.4334243,9.2224733 54.5254243,8.9464733 C54.6174243,8.6704733 54.7434243,8.4324733 54.9034243,8.2324733 C55.0634243,8.0324733 55.2554243,7.8784733 55.4794243,7.7704733 C55.7034243,7.6624733 55.9474243,7.6084733 56.2114243,7.6084733 C56.4434243,7.6084733 56.6534243,7.6564733 56.8414243,7.7524733 C57.0294243,7.8484733 57.2074243,7.9724733 57.3754243,8.1244733 L57.3754243,8.1244733 L57.8794243,7.4764733 C57.6714243,7.2924733 57.4314243,7.1324733 57.1594243,6.9964733 C56.8874243,6.8604733 56.5594243,6.7924733 56.1754243,6.7924733 C55.7994243,6.7924733 55.4414243,6.8604733 55.1014243,6.9964733 C54.7614243,7.1324733 54.4634243,7.3324733 54.2074243,7.5964733 C53.9514243,7.8604733 53.7474243,8.1824733 53.5954243,8.5624733 C53.4434243,8.9424733 53.3674243,9.3764733 53.3674243,9.8644733 C53.3674243,10.3444733 53.4374243,10.7744733 53.5774243,11.1544733 C53.7174243,11.5344733 53.9094243,11.8544733 54.1534243,12.1144733 C54.3974243,12.3744733 54.6874243,12.5724733 55.0234243,12.7084733 C55.3594243,12.8444733 55.7194243,12.9124733 56.1034243,12.9124733 Z M60.2554243,12.7684733 L60.2554243,8.5444733 C60.5514243,8.2484733 60.8154243,8.0244733 61.0474243,7.8724733 C61.2794243,7.7204733 61.5474243,7.6444733 61.8514243,7.6444733 C62.2354243,7.6444733 62.5154243,7.7664733 62.6914243,8.0104733 C62.8674243,8.2544733 62.9554243,8.6524733 62.9554243,9.2044733 L62.9554243,9.2044733 L62.9554243,12.7684733 L63.9394243,12.7684733 L63.9394243,9.0724733 C63.9394243,8.3204733 63.7974243,7.7524733 63.5134243,7.3684733 C63.2294243,6.9844733 62.7794243,6.7924733 62.1634243,6.7924733 C61.7554243,6.7924733 61.3994243,6.8864733 61.0954243,7.0744733 C60.7914243,7.2624733 60.4994243,7.4884733 60.2194243,7.7524733 L60.2194243,7.7524733 L60.2554243,6.5524733 L60.2554243,4.2244733 L59.2714243,4.2244733 L59.2714243,12.7684733 L60.2554243,12.7684733 Z M65.6194243,14.8084733 C66.1074243,14.6004733 66.4914243,14.3044733 66.7714243,13.9204733 C67.0514243,13.5364733 67.1914243,13.0844733 67.1914243,12.5644733 C67.1914243,12.2044733 67.1174243,11.9204733 66.9694243,11.7124733 C66.8214243,11.5044733 66.6194243,11.4004733 66.3634243,11.4004733 C66.1634243,11.4004733 65.9914243,11.4624733 65.8474243,11.5864733 C65.7034243,11.7104733 65.6314243,11.8804733 65.6314243,12.0964733 C65.6314243,12.3204733 65.7014243,12.4904733 65.8414243,12.6064733 C65.9814243,12.7224733 66.1474243,12.7804733 66.3394243,12.7804733 C66.3954243,12.7804733 66.4354243,12.7764733 66.4594243,12.7684733 C66.4674243,13.0884733 66.3754243,13.3744733 66.1834243,13.6264733 C65.9914243,13.8784733 65.7234243,14.0804733 65.3794243,14.2324733 L65.3794243,14.2324733 L65.6194243,14.8084733 Z M75.6274243,12.7684733 L75.6274243,11.9164733 L73.4074243,11.9164733 C73.2074243,11.9164733 72.9954243,11.9244733 72.7714243,11.9404733 C72.5474243,11.9564733 72.3314243,11.9724733 72.1234243,11.9884733 C72.5794243,11.5164733 72.9974243,11.0704733 73.3774243,10.6504733 C73.7574243,10.2304733 74.0854243,9.8264733 74.3614243,9.4384733 C74.6374243,9.0504733 74.8534243,8.6744733 75.0094243,8.3104733 C75.1654243,7.9464733 75.2434243,7.5844733 75.2434243,7.2244733 C75.2434243,6.5444733 75.0394243,5.9984733 74.6314243,5.5864733 C74.2234243,5.1744733 73.6634243,4.9684733 72.9514243,4.9684733 C72.4474243,4.9684733 72.0154243,5.0744733 71.6554243,5.2864733 C71.2954243,5.4984733 70.9554243,5.7804733 70.6354243,6.1324733 L70.6354243,6.1324733 L71.1994243,6.6964733 C71.4234243,6.4404733 71.6714243,6.2224733 71.9434243,6.0424733 C72.2154243,5.8624733 72.5114243,5.7724733 72.8314243,5.7724733 C73.3194243,5.7724733 73.6834243,5.9124733 73.9234243,6.1924733 C74.1634243,6.4724733 74.2834243,6.8324733 74.2834243,7.2724733 C74.2834243,7.5844733 74.2034243,7.9064733 74.0434243,8.2384733 C73.8834243,8.5704733 73.6514243,8.9344733 73.3474243,9.3304733 C73.0434243,9.7264733 72.6674243,10.1564733 72.2194243,10.6204733 C71.7714243,11.0844733 71.2594243,11.6044733 70.6834243,12.1804733 L70.6834243,12.1804733 L70.6834243,12.7684733 L75.6274243,12.7684733 Z M79.5394243,11.5204733 L79.5394243,9.1804733 L81.7234243,9.1804733 L81.7234243,8.4364733 L79.5394243,8.4364733 L79.5394243,6.0964733 L78.7594243,6.0964733 L78.7594243,8.4364733 L76.5754243,8.4364733 L76.5754243,9.1804733 L78.7594243,9.1804733 L78.7594243,11.5204733 L79.5394243,11.5204733 Z M85.1194243,12.9124733 C85.8874243,12.9124733 86.4874243,12.5684733 86.9194243,11.8804733 C87.3514243,11.1924733 87.5674243,10.2044733 87.5674243,8.9164733 C87.5674243,7.6284733 87.3514243,6.6484733 86.9194243,5.9764733 C86.4874243,5.3044733 85.8874243,4.9684733 85.1194243,4.9684733 C84.3434243,4.9684733 83.7394243,5.3044733 83.3074243,5.9764733 C82.8754243,6.6484733 82.6594243,7.6284733 82.6594243,8.9164733 C82.6594243,10.2044733 82.8754243,11.1924733 83.3074243,11.8804733 C83.7394243,12.5684733 84.3434243,12.9124733 85.1194243,12.9124733 Z M85.1194243,12.1204733 C84.6714243,12.1204733 84.3094243,11.8664733 84.0334243,11.3584733 C83.7574243,10.8504733 83.6194243,10.0364733 83.6194243,8.9164733 C83.6194243,8.3564733 83.6554243,7.8764733 83.7274243,7.4764733 C83.7994243,7.0764733 83.9014243,6.7504733 84.0334243,6.4984733 C84.1654243,6.2464733 84.3234243,6.0604733 84.5074243,5.9404733 C84.6914243,5.8204733 84.8954243,5.7604733 85.1194243,5.7604733 C85.3434243,5.7604733 85.5454243,5.8204733 85.7254243,5.9404733 C85.9054243,6.0604733 86.0614243,6.2464733 86.1934243,6.4984733 C86.3254243,6.7504733 86.4274243,7.0764733 86.4994243,7.4764733 C86.5714243,7.8764733 86.6074243,8.3564733 86.6074243,8.9164733 C86.6074243,9.4764733 86.5714243,9.9584733 86.4994243,10.3624733 C86.4274243,10.7664733 86.3254243,11.0984733 86.1934243,11.3584733 C86.0614243,11.6184733 85.9054243,11.8104733 85.7254243,11.9344733 C85.5454243,12.0584733 85.3434243,12.1204733 85.1194243,12.1204733 Z" id="path-1"></path>
        <rect id="path-2" x="0" y="0" width="48" height="48" rx="24"></rect>
    </defs>
    <g id="Page-1" stroke="none" stroke-width="1" fill="none" fill-rule="evenodd">
        <g id="Vector">
            <g id="Booking-4" transform="translate(37.000000, 0.206760)" fill-rule="nonzero">
                <path d="M18.4064432,27.8523763 C18.4064432,22.3146969 22.8892663,17.8255208 28.4298886,17.8255208 L180.943403,17.8255208 C186.479199,17.8255208 190.966849,22.3134794 190.966849,27.8523763 L190.966849,27.8523763 C190.966849,33.3900557 186.484026,37.8792318 180.943403,37.8792318 L28.4298886,37.8792318 C22.8940926,37.8792318 18.4064432,33.3912732 18.4064432,27.8523763 L18.4064432,27.8523763 Z" id="Shadow" fill="#929292" opacity="0.7"></path>
                <path d="M0,17.8255208 C0,7.98075752 7.9759311,0 17.8335094,0 L197.291796,0 C207.140971,0 215.125305,7.97859293 215.125305,17.8255208 L215.125305,17.8255208 C215.125305,27.6702841 207.149374,35.6510417 197.291796,35.6510417 L17.8335094,35.6510417 C7.98433414,35.6510417 0,27.6724487 0,17.8255208 L0,17.8255208 Z" id="Block" fill="#0F99FF"></path>
                <g id="bookingcom" transform="translate(3.000000, 2.000000)">
                    <rect id="Rectangle" fill="#005C93" x="0" y="0" width="32" height="32" rx="16"></rect>
                    <g id="booking" transform="translate(9.000000, 7.000000)">
                        <path d="M8.45189002,7.45889447 C8.55161283,7.51405933 8.63084123,7.55961429 8.71170807,7.6018242 C9.78069438,8.1652939 10.4191592,9.06564914 10.6411542,10.2587807 C10.8780896,11.5330154 10.6870028,12.7373444 9.93340274,13.8090622 C9.32412442,14.6760804 8.47024613,15.1896012 7.48579233,15.4942837 C6.85221508,15.6901388 6.20139253,15.7841685 5.53971184,15.7853024 C3.7488668,15.7878821 1.95785514,15.7860111 0.166815704,15.7860111 C0.121328107,15.7860111 0.075812739,15.7860111 0.013774099,15.7860111 C0.0105249849,15.7186 0.00563742865,15.6627264 0.00563742865,15.6071647 C0.00344358238,10.9473777 0.00105534467,6.28719385 1.12489673e-10,1.62766199 C-0.000194314596,0.772096308 0.738187691,0.011864359 1.57321001,0.0102201852 C2.93700483,0.00707357668 4.30135504,-0.0142156393 5.66459445,0.0159747935 C6.79920176,0.0413177483 7.86585537,0.337297381 8.77194165,1.08012377 C9.51340614,1.68781607 9.94920399,2.47804002 10.08625,3.43954152 C10.2385695,4.50870806 10.0530646,5.50346155 9.46461389,6.41084706 C9.22579012,6.77919869 8.9070437,7.06834649 8.57918865,7.34859308 C8.54383717,7.37892525 8.50904111,7.40968264 8.45189002,7.45889447 Z M3.00923513,13.0827059 C3.03586676,13.0904732 3.04566964,13.0961144 3.05508374,13.0961144 C3.98077579,13.0964263 4.90738425,13.1238386 5.83149339,13.0874967 C6.53757865,13.060141 7.10825638,12.7306543 7.42811361,12.0554091 C7.66529894,11.5545031 7.7110087,11.0192111 7.61417399,10.4742242 C7.50642559,9.86860126 7.21050628,9.39215938 6.6667101,9.0974554 C6.33771647,8.91937437 5.98289655,8.84646376 5.61316403,8.8453015 C5.06281409,8.84382742 4.51263077,8.84496133 3.96233637,8.84496133 C3.36030608,8.84496133 3.00959614,9.18445487 3.00398656,9.80453518 C2.9943503,10.8648288 3.00018204,11.9254343 3.00018204,12.985728 C3.00018204,13.016457 3.00579163,13.0471861 3.00923513,13.0827059 Z M3.0045142,6.37864393 C3.84881177,6.37864393 4.66661656,6.39678654 5.48314393,6.37198219 C5.99775361,6.35605071 6.43768922,6.13689369 6.7401623,5.68673024 C7.03880309,5.24246314 7.10375761,4.74305952 7.07979192,4.21848303 C7.04077478,3.36107474 6.39234047,2.67573774 5.55440228,2.63999114 C5.04107002,2.61813497 4.52623817,2.61294731 4.01235051,2.62238714 C3.32401042,2.6353421 3.003209,2.98574955 3.00431407,3.68684794 C3.00556946,4.51647536 3.0045142,5.34610278 3.0045142,6.1757302 C3.0045142,6.23758516 3.0045142,6.29904324 3.0045142,6.37864393 Z" id="Shape" fill="#FFFFFF"></path>
                        <path d="M14.1024025,15.9998914 C13.1568264,16.0103189 12.2247027,15.2689692 12.2106567,14.0806957 C12.1982781,13.0170375 13.0689328,12.1559292 14.1069809,12.1599856 C15.1522639,12.1637855 15.9987549,13.0244939 16.0000015,14.0848667 C16.0013267,15.1398973 15.1473181,16.0017198 14.1024025,15.9998914 Z" id="Path" fill="#289BD2"></path>
                    </g>
                </g>
                <g id="Sandra-Hoch,-2+0" transform="translate(48.000000, 9.000000)">
                    <g id="SandraHoch,2+0">
                        <use fill="#000000" xlink:href="#path-1"></use>
                        <use fill="#FFFFFF" xlink:href="#path-1"></use>
                    </g>
                </g>
            </g>
            <g id="Group-11" transform="translate(0.000000, 43.000000)">
                <path d="M23.48,34.7744951 C60.0236242,0.358575125 145.789764,25.9102556 154.203753,29.3204266 C163.388466,33.0429703 181.490063,50.3164262 187.093015,59.6473264 C194.532135,72.0360969 191.38616,88.4335353 190.747377,103.263542 C190.239388,115.057053 176.527268,121.84716 179.48,125" id="Path-2" stroke="#8492B4" stroke-width="2" opacity="0.389950707" stroke-dasharray="10"></path>
                <line x1="67.98" y1="54" x2="91.98" y2="42.25" id="Line-4" stroke="#7F8FA4" stroke-width="2" opacity="0.389950707" stroke-linecap="square" stroke-dasharray="10"></line>
                <line x1="133.48" y1="89" x2="182.48" y2="59" id="Line-4" stroke="#7F8FA4" stroke-width="2" opacity="0.389950707" stroke-linecap="square" stroke-dasharray="10"></line>
                <path d="M75.48,67 C89.8133333,59.3333333 107.146667,55 127.48,54 C147.813333,53 160.813333,53 166.48,54" id="Line-4" stroke="#7F8FA4" stroke-width="2" opacity="0.389950707" stroke-linecap="square" stroke-dasharray="10"></path>
                <path d="M12.48,49.52 C14.280009,49.52 15.96,49.0600046 17.52,48.14 C19.0400076,47.2599956 20.2399956,46.0600076 21.12,44.54 C22.0400046,42.98 22.5,41.300009 22.5,39.5 C22.5,37.699991 22.0400046,36.0200078 21.12,34.46 C20.2399956,32.9399924 19.0400076,31.7400044 17.52,30.86 C15.96,29.9399954 14.280009,29.48 12.48,29.48 C10.679991,29.48 9.0000078,29.9399954 7.44,30.86 C5.9199924,31.7400044 4.7200044,32.9399924 3.84,34.46 C2.9199954,36.0200078 2.46,37.699991 2.46,39.5 C2.46,41.300009 2.9199954,42.98 3.84,44.54 C4.7200044,46.0600076 5.9199924,47.2599956 7.44,48.14 C9.0000078,49.0600046 10.679991,49.52 12.48,49.52 Z M12.48,27.02 C14.7600114,27.02 16.8699903,27.5899943 18.81,28.73 C20.6900094,29.8100054 22.1699946,31.2899906 23.25,33.17 C24.3900057,35.1100097 24.96,37.2199886 24.96,39.5 C24.96,41.7800114 24.3900057,43.8899903 23.25,45.83 C22.1699946,47.7100094 20.6900094,49.1899946 18.81,50.27 C16.8699903,51.4100057 14.7600114,51.98 12.48,51.98 C10.1999886,51.98 8.0900097,51.4100057 6.15,50.27 C4.2699906,49.1699945 2.7900054,47.6800094 1.71,45.8 C0.5699943,43.8599903 -4.54747351e-13,41.7600113 -4.54747351e-13,39.5 C-4.54747351e-13,37.2399887 0.5699943,35.1400097 1.71,33.2 C2.8100055,31.3199906 4.2999906,29.8300055 6.18,28.73 C8.1200097,27.5899943 10.2199887,27.02 12.48,27.02 Z M11.25,33.23 L13.71,33.23 L13.71,40.73 L11.25,40.73 L11.25,33.23 Z M11.25,43.25 L13.71,43.25 L13.71,45.77 L11.25,45.77 L11.25,43.25 Z" id="error" fill="#D8D8D8" fill-rule="nonzero"></path>
                <path d="M179.98,104.314453 C184.127156,104.405599 187.567877,105.818346 190.302266,108.552734 C193.036654,111.287123 194.449401,114.727844 194.540547,118.875 C194.449401,123.022156 193.036654,126.462877 190.302266,129.197266 C187.567877,131.931654 184.127156,133.344401 179.98,133.435547 C175.832844,133.344401 172.392123,131.931654 169.657734,129.197266 C166.923346,126.462877 165.510599,123.022156 165.419453,118.875 C165.510599,114.727844 166.923346,111.287123 169.657734,108.552734 C172.392123,105.818346 175.832844,104.405599 179.98,104.314453 Z M179.98,107.185547 C176.65316,107.276693 173.896027,108.416005 171.708516,110.603516 C169.521005,112.791027 168.381693,115.54816 168.290547,118.875 C168.381693,122.20184 169.521005,124.958973 171.708516,127.146484 C173.896027,129.333995 176.65316,130.473307 179.98,130.564453 C183.30684,130.473307 186.063973,129.333995 188.251484,127.146484 C190.438995,124.958973 191.578307,122.20184 191.669453,118.875 C191.578307,115.54816 190.438995,112.791027 188.251484,110.603516 C186.063973,108.416005 183.30684,107.276693 179.98,107.185547 Z M178.544453,125.4375 L171.981953,118.875 L174.032734,116.824219 L178.544453,121.335938 L186.679219,113.201172 L188.73,115.251953 L178.544453,125.4375 Z" id="check" fill="#00D041" fill-rule="nonzero"></path>
                <g id="booking" transform="translate(166.480000, 20.000000)" fill-rule="nonzero">
                    <rect id="Rectangle" fill="#005C93" x="0" y="0" width="48" height="48" rx="24"></rect>
                    <path d="M25.5949734,22.3395355 C25.7435799,22.423401 25.8616458,22.4926569 25.9821532,22.5568273 C27.5751524,23.4134536 28.5265902,24.7822369 28.8574063,26.5961193 C29.2104865,28.5333005 28.9257297,30.364206 27.8027178,31.9935067 C26.8947736,33.3116087 25.6223276,34.0922992 24.1552984,34.5554988 C23.211144,34.8532515 22.2412908,34.9962021 21.2552569,34.997926 C18.5865466,35.0018478 15.917588,34.9990034 13.2485881,34.9990034 C13.1808027,34.9990034 13.1129758,34.9990034 13.0205261,34.9990034 C13.0156843,34.8965203 13.0084009,34.8115774 13.0084009,34.7271085 C13.0051316,27.6429729 13.0015727,20.5582339 13,13.4744861 C12.9997104,12.1737951 14.1000444,11.018037 15.3443914,11.0155374 C17.3767131,11.0107537 19.4098624,10.9783884 21.4413564,11.024286 C23.1321438,11.0628141 24.7216668,11.5127832 26.071913,12.64208 C27.1768405,13.5659366 27.8262648,14.7672906 28.0304901,16.2290327 C28.2574762,17.8544548 27.9810374,19.366749 27.1041305,20.7462202 C26.7482363,21.3062142 26.2732416,21.745797 25.7846733,22.1718476 C25.7319927,22.2179607 25.6801397,22.2647202 25.5949734,22.3395355 Z M17.4843504,30.8892489 C17.5240367,30.9010573 17.538645,30.9096334 17.5526738,30.9096334 C18.9321365,30.9101075 20.3129648,30.9517817 21.6900686,30.8965321 C22.7422741,30.8549442 23.5926958,30.3540352 24.0693458,29.3274801 C24.4227984,28.5659675 24.4909149,27.752179 24.3466122,26.9236516 C24.186046,26.0029411 23.7450682,25.2786207 22.9347053,24.830591 C22.4444402,24.5598597 21.915689,24.4490159 21.364715,24.4472489 C20.5445857,24.4450079 19.7247047,24.4467318 18.9046581,24.4467318 C18.0075149,24.4467318 17.4848884,24.9628537 17.476529,25.9055433 C17.4621691,27.5174763 17.4708595,29.1298833 17.4708595,30.7418162 C17.4708595,30.7885327 17.4792189,30.8352491 17.4843504,30.8892489 Z M17.4773153,20.6972627 C18.7354842,20.6972627 19.9541737,20.7248444 21.1709596,20.6871351 C21.9378289,20.6629149 22.5934192,20.329737 23.0441634,19.6453669 C23.4891968,18.9699609 23.5859917,18.2107324 23.5502782,17.4132343 C23.492135,16.109742 22.5258407,15.0678445 21.2771485,15.0135 C20.5121828,14.9802728 19.7449824,14.9723861 18.979189,14.9867372 C17.9534273,15.0064322 17.4753703,15.5391463 17.477017,16.6050053 C17.4788878,17.8662632 17.4773153,19.1275211 17.4773153,20.388779 C17.4773153,20.4828153 17.4773153,20.5762482 17.4773153,20.6972627 Z" id="Shape" fill="#FFFFFF"></path>
                    <path d="M34.9954706,34.9998303 C33.4983084,35.0161233 32.022446,33.8577644 32.0002065,32.0010871 C31.980607,30.3391211 33.3591436,28.9936394 35.0027197,28.9999775 C36.6577512,29.0059148 37.9980287,30.3507717 38,32.0076042 C38.0021007,33.6560895 36.6499204,35.0026872 34.9954706,34.9998303 Z" id="Path" fill="#289BD2"></path>
                </g>
                <g id="airbnb" transform="translate(109.480000, 68.000000)" fill-rule="nonzero">
                    <rect id="Rectangle" fill="#FF7977" x="0" y="0" width="43" height="43" rx="21.5"></rect>
                    <g id="airbnb-2" transform="translate(9.000000, 7.000000)" fill="#FFFFFF">
                        <path d="M21.3701063,15.3452461 C21.363998,14.7828188 21.2355672,14.2274539 21.0354031,13.7057961 C20.8809728,13.3019527 20.7016395,12.908703 20.5265351,12.5140087 C19.133029,9.40177015 17.6706805,6.32239147 16.1406224,3.27825808 C15.9254224,2.85290634 15.7147645,2.42498644 15.4875046,2.00621561 C15.2641603,1.59771744 15.0041662,1.20446772 14.6675834,0.884731616 C14.1305233,0.360024132 13.4099011,0.0471899665 12.6703275,0 L12.3298292,0 C11.568485,0.0385224216 10.825309,0.365963005 10.2790081,0.911697311 C9.95479861,1.2264576 9.70388863,1.61023722 9.48649597,2.00733919 C9.26221189,2.41920808 9.05452985,2.84038655 8.8434021,3.25899687 C7.81672763,5.3013746 6.82028261,7.35956379 5.85440956,9.43285697 C5.27866357,10.6736 4.70777288,11.9164296 4.15865279,13.1693714 C3.93092301,13.6913502 3.72496382,14.2311456 3.64743546,14.8009564 C3.5038122,15.7630539 3.70977139,16.7728229 4.21127811,17.5989683 C4.64355747,18.3166089 5.29244639,18.8949268 6.04877865,19.2289483 C6.64003368,19.4904697 7.28266557,19.607039 7.92559156,19.5693902 C8.78435525,19.5226817 9.61242083,19.2064769 10.3389947,18.7450104 C11.1495185,18.2352303 11.8427318,17.5572357 12.488175,16.8474601 C13.0883541,17.5103667 13.7306649,18.142937 14.472118,18.6387527 C15.1881981,19.121567 16.0046736,19.471158 16.8634373,19.5543022 C17.796127,19.6541395 18.7624907,19.4172266 19.5452922,18.8851357 C20.2376603,18.4149786 20.7738289,17.7398081 21.0823899,16.9495445 C21.2810764,16.4395988 21.3788767,15.894267 21.3701063,15.3452461 L21.3701063,15.3452461 Z M12.4920905,14.9741468 C12.2579392,14.691649 12.0516668,14.3860378 11.8444546,14.0826738 C11.4958119,13.5586083 11.178807,13.0107874 10.9238249,12.431988 C10.7148898,11.9517418 10.5471466,11.4475796 10.4816782,10.9239957 C10.4339082,10.5085956 10.4453417,10.0752183 10.5941335,9.68084506 C10.727263,9.31102981 10.983185,8.99065167 11.3073945,8.77893886 C12.0798589,8.26803525 13.1809183,8.32325072 13.8808663,8.94298017 C14.2351474,9.25228312 14.4467451,9.70957636 14.4999969,10.1795499 C14.5696941,10.8042552 14.4310828,11.4316891 14.2182322,12.0143407 C13.8163377,13.0955367 13.1801352,14.0646966 12.4920905,14.9741468 L12.4920905,14.9741468 Z M20.0715454,16.2991576 C19.8651163,17.029318 19.3689348,17.6671851 18.7197326,18.0352347 C18.1442999,18.365083 17.4575082,18.4780821 16.8087759,18.3670091 C15.9825898,18.2352303 15.2412933,17.7859626 14.5989826,17.2556372 C14.126921,16.8668818 13.7018463,16.4225899 13.2946266,15.9646546 C13.9375638,15.1312862 14.5432248,14.2593954 15.005889,13.3062865 C15.409663,12.471634 15.7164874,11.5673201 15.7456193,10.6288176 C15.7620647,10.0333252 15.6527418,9.4269181 15.3813143,8.89675327 C15.0259368,8.18842224 14.3892644,7.64429304 13.6594014,7.38105649 C12.9776217,7.1314633 12.2197232,7.1091524 11.5241607,7.31235817 C10.8682237,7.50256263 10.2691409,7.90656652 9.85863212,8.46658623 C9.49730295,8.95485792 9.29134376,9.55516566 9.24357376,10.1639804 C9.17011759,11.0408471 9.38453442,11.915627 9.70890057,12.7217087 C10.1911427,13.8995318 10.8989218,14.9656398 11.680627,15.9545424 C11.3281492,16.3717361 10.9456482,16.7612621 10.5363397,17.1198457 C9.90170343,17.6702348 9.1755994,18.1493574 8.35301562,18.3316969 C7.68799454,18.484663 6.97050476,18.4084141 6.36061496,18.0923763 C5.64625765,17.7275369 5.09776405,17.0403932 4.89086512,16.250523 C4.73267593,15.6702791 4.76775948,15.0438082 4.95586365,14.475442 C5.11232999,14.0051474 5.32455409,13.5570032 5.52315201,13.1045253 C6.90174419,10.025825 8.34768706,6.97926963 9.8598851,3.96716738 C10.0854222,3.5188627 10.3075135,3.06847139 10.5462069,2.62755017 C10.7410459,2.27234134 10.9676793,1.92355292 11.2879732,1.67412024 C11.6342972,1.39762606 12.0627064,1.25127884 12.5016445,1.25952268 C12.9527187,1.25406533 13.4011302,1.42436654 13.7461706,1.72147072 C14.0869821,2.01151245 14.3172179,2.40829339 14.5239602,2.80379025 C14.9913231,3.70344931 15.4402045,4.61354152 15.8892425,5.52267067 C17.1707923,8.12208552 18.4021926,10.7471499 19.5827251,13.3963326 C19.7611187,13.8078805 19.9520421,14.2162182 20.0721719,14.6505585 C20.2189276,15.1861806 20.2237829,15.764659 20.0715454,16.2991576 L20.0715454,16.2991576 Z M5.80429022,21.9961422 C6.19020919,21.9065776 6.61183819,22.1674065 6.71207688,22.5600142 C6.83659214,22.9617709 6.58912786,23.4288553 6.1950645,23.5450646 C5.81008527,23.6837453 5.35290285,23.4426592 5.22541176,23.0487674 C5.10449884,22.7168325 5.2338694,22.3161993 5.52111591,22.1198955 C5.60676526,22.0601816 5.70294968,22.018147 5.80429022,21.9961422 L5.80429022,21.9961422 Z M8.41080949,24.5895037 C8.64323796,24.330601 8.97073657,24.1683253 9.30810242,24.116641 C9.53316749,24.0941028 9.76030545,24.1088443 9.98079803,24.1602998 C9.97797881,24.5248182 9.98017153,24.8888551 9.97954504,25.253534 C9.63356493,25.1618827 9.25892281,25.1429425 8.91936424,25.2710296 C8.73492255,25.3398592 8.5686789,25.4518085 8.43383306,25.5979886 C8.40470119,25.6235097 8.41174923,25.6647608 8.40908664,25.7002336 C8.41112274,26.7186701 8.40752041,27.7372671 8.41049624,28.7555431 C8.40705054,28.7947076 8.41629129,28.8388479 8.39937601,28.8756047 C8.01564977,28.8847538 7.63145365,28.8773703 7.24757078,28.8788149 C7.2477274,27.3262008 7.24631779,25.7732657 7.24851052,24.2206516 C7.5717803,24.2220962 7.89520671,24.2193675 8.21863312,24.2212936 C8.28973994,24.2171203 8.36554546,24.2545192 8.39154487,24.3256252 C8.41707441,24.4106955 8.40893001,24.5013837 8.41080949,24.5895037 L8.41080949,24.5895037 Z M16.6848871,24.593677 C16.9920248,24.268002 17.4371472,24.107813 17.8739686,24.1068499 C18.3355365,24.0949722 18.8085378,24.2347764 19.1651683,24.5416717 C19.4023326,24.7323138 19.5733809,24.9960699 19.6530488,25.2939825 C19.7545405,25.6568958 19.7454564,26.0381073 19.7442034,26.4119353 C19.7445166,27.234389 19.7442034,28.0570032 19.7445166,28.8796174 C19.3575013,28.8789754 18.9706426,28.8821856 18.5836273,28.8778518 C18.5839405,28.0558797 18.5836273,27.2339075 18.5839405,26.4116143 C18.5839405,26.1061636 18.5980366,25.7766364 18.4395341,25.5045718 C18.329115,25.3093915 18.1106259,25.2121224 17.899968,25.1894905 C17.4987,25.1236813 17.079577,25.2872411 16.8029808,25.587074 C16.7735357,25.6172499 16.7483194,25.6554513 16.7516085,25.7010361 C16.7478496,25.8281601 16.7666443,25.9557656 16.755994,26.0830501 C16.7408015,26.2559195 16.7644516,26.4287889 16.7589698,26.6021398 C16.7540102,26.9289691 16.7535925,27.2558543 16.7577168,27.5826959 C16.7357896,28.0149496 16.7740056,28.4486478 16.7487893,28.88042 C16.3633402,28.8791359 15.9782043,28.880099 15.5927552,28.8799385 C15.5925986,27.3265218 15.589936,25.7734262 15.5941649,24.22017 C15.8922183,24.2225777 16.1908983,24.22017 16.4887952,24.2211331 C16.5658537,24.2161573 16.6501168,24.2602976 16.670008,24.3405526 C16.6881762,24.4230548 16.6826944,24.5089277 16.6848871,24.593677 L16.6848871,24.593677 Z M5.379842,28.8797779 C5.37968538,27.3265218 5.37749265,25.7734262 5.38062511,24.2203305 C5.76466461,24.2212936 6.14854748,24.2209726 6.53243035,24.2206516 C6.53540619,25.7737472 6.53321346,27.3268428 6.53352671,28.8796174 C6.14901735,28.8796174 5.76450798,28.8792964 5.379842,28.8797779 L5.379842,28.8797779 Z M4.66454495,24.2208121 C4.36022654,24.22017 4.05590813,24.2217751 3.75127648,24.2190465 C3.67077228,24.2185649 3.56802762,24.2225777 3.52871525,24.3092531 C3.49347509,24.3983362 3.50694466,24.4972104 3.5038122,24.5909483 C3.25055288,24.3147105 2.89360916,24.1506692 2.52742468,24.1150359 C1.9620158,24.0630307 1.37608931,24.2237013 0.922039356,24.5755394 C0.548023732,24.8586792 0.27158421,25.2681404 0.126864596,25.7191738 C0.0571673798,25.9305655 0.0222404601,26.1523905 0,26.3740549 L0,26.6929885 C0.0324209524,27.3605499 0.322173425,28.0208885 0.827595712,28.451216 C1.20881599,28.7821878 1.69873261,28.9670954 2.19507076,28.999358 L2.45381189,28.999358 C2.84724876,28.9722318 3.2356737,28.8054618 3.50412545,28.5049869 C3.50663142,28.5992063 3.49363171,28.6990436 3.52808876,28.7892503 C3.56395542,28.8622823 3.64853182,28.8823461 3.72198798,28.8794569 C4.03601702,28.8786544 4.35051592,28.8797779 4.66485819,28.8780123 C4.66485819,27.3260403 4.66579793,25.7734262 4.66454495,24.2208121 L4.66454495,24.2208121 Z M3.46825879,27.4282852 C3.23332435,27.7165613 2.86635676,27.887023 2.49985904,27.8751453 C2.10704866,27.878195 1.6993591,27.7239448 1.44484679,27.4082214 C1.1965994,27.1067835 1.12157701,26.6875311 1.17796127,26.3043935 C1.22009285,25.9942881 1.37436646,25.6968629 1.61807178,25.5044113 C1.83906678,25.325603 2.11769902,25.2334702 2.39664451,25.213567 C2.81216522,25.1763286 3.25023963,25.3641254 3.50020987,25.7079381 C3.51430594,26.2141869 3.50052312,26.7217198 3.50678804,27.2287712 C3.50271584,27.2955434 3.52072748,27.3759589 3.46825879,27.4282852 L3.46825879,27.4282852 Z M14.9293004,25.5535273 C14.750437,25.1052227 14.4331189,24.7155042 14.0309111,24.4612562 C13.6166434,24.1970566 13.1198354,24.0776371 12.6341476,24.1115047 C12.2505779,24.1373468 11.8757792,24.3050799 11.6095202,24.5917509 C11.6079539,23.7216257 11.6095202,22.851982 11.6087371,21.9818568 C11.2215651,21.9820173 10.8340799,21.9800912 10.4469079,21.9829804 C10.448944,24.2811639 10.4436189,26.5804709 10.4497272,28.8784939 C10.7703344,28.8792964 11.0912548,28.880099 11.4120186,28.8792964 C11.4917397,28.8857168 11.5777257,28.840774 11.5996529,28.7581113 C11.6154718,28.674004 11.6096768,28.587168 11.6101467,28.5019372 C11.8792249,28.808672 12.2745413,28.9751209 12.6720503,28.999679 L12.9091775,28.999679 C13.5527412,28.9666139 14.1837751,28.6574715 14.5877057,28.1391844 C15.1534279,27.4282852 15.263847,26.3949212 14.9293004,25.5535273 L14.9293004,25.5535273 Z M13.5752949,27.5139976 C13.3159273,27.7607016 12.9569475,27.8789975 12.6064253,27.8754663 C12.2407107,27.8841339 11.8753093,27.7119065 11.643664,27.4218648 C11.615002,27.3916889 11.6056046,27.3509193 11.6079539,27.3107918 C11.6082672,26.7775773 11.6087371,26.2445233 11.6079539,25.7116298 C11.8303585,25.4143651 12.1863625,25.2291365 12.5505109,25.2100358 C12.9196712,25.1989606 13.3069998,25.3100335 13.5779575,25.5768013 C13.8360721,25.8222212 13.961997,26.1902709 13.9538526,26.5467638 C13.9613705,26.9027752 13.8319999,27.2684171 13.5752949,27.5139976 L13.5752949,27.5139976 Z M24.4822045,24.9769751 C23.9897819,24.3342927 23.1479335,24.0100623 22.3630959,24.1302844 C22.035284,24.1832527 21.7247007,24.3444048 21.4955613,24.5915904 C21.4930553,23.7219467 21.4955613,22.852303 21.4943083,21.9823384 C21.1077629,21.9819119 20.7215306,21.9815358 20.3352984,21.9826594 C20.3349852,24.2810034 20.3352984,26.5799894 20.3352984,28.8786544 C20.6399301,28.881062 20.9453449,28.8781728 21.2499765,28.881062 C21.3300108,28.8823461 21.4300929,28.8757652 21.4711281,28.7919789 C21.5066815,28.7014512 21.4933686,28.6004904 21.4958746,28.5053079 C21.7629167,28.8051408 22.1496188,28.9707872 22.5408629,29 L22.8017968,29 C23.4383125,28.9645273 24.0605755,28.6600396 24.463723,28.1496175 C24.7929444,27.742564 24.9705549,27.2212272 25,26.6961987 L25,26.3846486 C24.9635069,25.8777577 24.7965468,25.3743981 24.4822045,24.9769751 L24.4822045,24.9769751 Z M23.5775503,27.3801322 C23.2710392,27.7844571 22.7302201,27.934855 22.250484,27.8563656 C21.9583821,27.7966559 21.6750512,27.6350222 21.5022961,27.3827003 C21.4830315,27.1870385 21.5004166,26.9891296 21.4946216,26.7925047 C21.4986938,26.4308755 21.4858507,26.0681227 21.5004166,25.7071355 C21.6761476,25.4588264 21.9574424,25.2996004 22.2468816,25.2337912 C22.7825322,25.1323489 23.405265,25.34984 23.6760661,25.8567309 C23.9225907,26.3259019 23.8980009,26.9528543 23.5775503,27.3801322 Z" id="Shape"></path>
                    </g>
                </g>
                <g id="feratel" transform="translate(83.480000, 0.000000)">
                    <g id="Group">
                        <g id="Mask" fill="#009AD2" fill-rule="nonzero">
                            <rect id="path-2" x="0" y="0" width="48" height="48" rx="24"></rect>
                        </g>
                        <g id="Clipped">
                            <mask id="mask-3" fill="white">
                                <use xlink:href="#path-2"></use>
                            </mask>
                            <g id="path-2"></g>
                            <g id="Group" mask="url(#mask-3)" fill-rule="nonzero">
                                <g transform="translate(-7.680000, -6.400000)">
                                    <rect id="Rectangle" fill="#FFE800" x="0" y="21.76" width="82.24" height="29.12"></rect>
                                    <path d="M82.24,52.330786 C68.6383108,53.7879888 54.9650186,54.4765758 41.2855128,54.393254 C27.4964472,54.4668401 13.7137729,53.7827235 0,52.3440069 L0,38.9644066 L71.6471808,38.9644066 L0,25.7434577 L0,2.17050577 C13.6847517,0.744612226 27.4337765,0.0209152 41.1928256,0.00227015192 C54.9055234,-0.0462189842 68.6099335,0.682103394 82.24,2.18372672 L82.24,24.1966067 L10.1691064,24.1966067 L82.24,37.5233232 L82.24,52.330786 Z" id="Path" fill="#009AD2"></path>
                                </g>
                            </g>
                        </g>
                    </g>
                </g>
                <g id="expedia" transform="translate(30.480000, 47.000000)" fill-rule="nonzero">
                    <rect id="Rectangle" fill="#072F54" x="1" y="0" width="45" height="45" rx="22.5"></rect>
                    <path d="M27.3639991,21.7086815 L27.878843,19.4726269 L26.9033006,8.68607418 L28.0519097,9.06113367 L32.5251214,23.1951372 L39.1549541,25.1010736 C40.0015287,25.3749203 40.8558125,25.8739605 41.4376754,26.2468813 C41.2364848,26.8260909 41.0055512,27.3960908 40.749428,27.9523493 C40.0775767,27.9543628 39.1952912,27.9055457 38.4175591,27.7070136 L31.8014208,25.7965801 L20.6059691,35.4204809 L19.4370943,35.1249485 L25.9149858,26.4862507 L26.6769317,24.3284577 L20.4131124,22.5217012 L4.56233628,16.9919856 C4.61137085,16.6646588 4.66726984,16.3396324 4.73231852,16.0169148 L21.1528185,19.9225931 L27.3639991,21.7086815 Z" id="path74" fill="#FBC108" transform="translate(23.000006, 22.053278) rotate(-30.000000) translate(-23.000006, -22.053278) "></path>
                </g>
            </g>
        </g>
    </g>
</svg>